<svg width="199" height="47" viewBox="0 0 199 47" fill="none" xmlns="http://www.w3.org/2000/svg">
<path d="M43.746 26.4843C42.4677 27.7864 41.0678 28.9647 39.5653 30.0033C38.7211 30.561 37.9462 31.0241 37.2406 31.3927C36.6209 31.729 35.9743 32.0136 35.3073 32.2436C33.398 32.7837 31.4492 33.1743 29.4786 33.4118C27.7072 33.6219 25.9508 33.9431 24.2201 34.3733C23.769 34.4924 23.3266 34.6418 22.8958 34.8204C22.2138 35.0823 21.565 35.4228 20.9626 35.8347C19.9236 36.4449 18.9955 37.2251 18.2174 38.1423L17.0478 39.4884L17.9805 35.9597C18.3027 34.6168 18.5331 33.4663 18.6717 32.508C18.8056 31.6931 18.8559 30.8668 18.8215 30.0418C18.729 28.5423 18.2532 27.0911 17.4392 25.8256C16.8326 24.8489 16.1387 23.9285 15.3658 23.0758C14.5603 22.2457 13.2263 21.0102 11.364 19.3692L9.61439 17.7539L8.16445 16.4079C7.39598 15.6483 6.82565 15.0377 6.4535 14.5858C5.97012 14.039 5.52599 13.4591 5.12439 12.8503C4.74721 12.2634 4.42371 11.6439 4.15776 10.9995C3.9423 10.5405 3.75192 10.0703 3.58746 9.5909C3.27626 8.5897 3.07373 7.55824 2.98332 6.51414C2.94706 5.87366 2.94706 5.23165 2.98332 4.59116C2.98332 3.94697 3.06548 3.26431 3.16214 2.548C3.22014 2.21629 3.26365 1.9663 3.29748 1.79323C3.35548 1.48075 3.40863 1.21634 3.46179 0.990387C2.99788 1.56637 2.59462 2.18818 2.25835 2.84606C1.39772 4.8171 0.966171 6.94698 0.992067 9.09574V9.60052C0.992067 9.76397 0.992067 9.94665 0.992067 10.1582L1.03558 10.7399C1.07854 11.2768 1.14952 11.8112 1.24824 12.3408C1.32073 12.7446 1.42223 13.1917 1.54789 13.6965C1.64884 14.1375 1.78457 14.5699 1.95386 14.9897C2.14872 15.4841 2.37472 15.9658 2.63051 16.4319C3.21422 17.5385 3.94046 18.5648 4.7909 19.4846C5.03739 19.7731 5.32256 20.0856 5.65121 20.4461C5.97987 20.8067 6.2892 21.1095 6.68551 21.5037C7.019 21.7922 7.40564 22.1431 7.85512 22.5518C8.19827 22.8643 8.63808 23.2729 9.17939 23.7777C10.7163 25.1526 11.9891 26.3577 12.9976 27.3929C13.8247 28.213 14.5888 29.0937 15.2836 30.0273C15.7718 30.7144 16.1592 31.4671 16.4339 32.2628C16.7088 33.0653 16.8714 33.9017 16.9172 34.7483C16.9463 35.0858 16.9463 35.4251 16.9172 35.7626C16.9172 35.979 16.8738 36.2097 16.8351 36.4453C16.7493 37.0283 16.6118 37.6026 16.4243 38.1615C16.3373 38.4308 16.2406 38.7288 16.1294 39.0605C15.8588 39.8586 15.5189 40.7928 15.1097 41.8633C14.9005 42.4799 14.7389 43.1115 14.6263 43.7526C14.5973 43.9545 14.5732 44.1468 14.5587 44.3295C14.4831 45.0845 14.6933 45.8405 15.1483 46.4496C15.2353 46.3005 15.361 46.089 15.5253 45.8198C15.6896 45.5506 15.8008 45.3775 15.9168 45.2141C16.0328 45.0506 16.2164 44.791 16.4291 44.5122L16.9366 43.8391C17.4616 43.1882 18.0351 42.5775 18.6524 42.0123C19.2698 41.4403 19.9433 40.9314 20.6629 40.4932C20.9674 40.3105 21.2719 40.1422 21.5909 39.9836C22.08 39.7349 22.5893 39.5274 23.1133 39.3634C23.3743 39.2817 23.6595 39.1999 23.9591 39.1278C24.9258 38.8971 26.3757 38.6471 28.3621 38.3683C29.1016 38.2961 29.9039 38.1856 30.7787 38.0462C33.6286 37.6095 36.3503 36.5666 38.7582 34.9886C42.1414 32.5817 44.4951 29.7405 45.8194 26.465C46.1776 25.5784 46.2101 24.5945 45.9112 23.6863C45.3102 24.7056 44.5828 25.6456 43.746 26.4843Z" fill="#010101"/>
<path d="M67.8244 39.1834L68.559 44.0822C68.5792 44.2737 68.6263 44.4614 68.6992 44.6398C68.7243 44.6944 68.7611 44.7429 68.8071 44.7819C68.853 44.821 68.9069 44.8496 68.965 44.8658C69.1313 44.9074 69.3013 44.9332 69.4725 44.9427C69.5643 44.9427 69.6126 44.9667 69.6126 45.0148C69.6126 45.0629 69.5402 45.1109 69.3952 45.1109C68.638 45.1109 68.0387 45.0917 67.5972 45.0533C67.4426 45.0533 67.3652 45.0196 67.3652 44.9715C67.3652 44.9235 67.3942 44.8898 67.4571 44.8658C67.5199 44.8417 67.5344 44.7263 67.5054 44.5196L67.0221 41.1112L65.2532 44.6542C65.113 44.9523 65.0115 45.1013 64.9535 45.1013C64.8955 45.1013 64.8182 44.9908 64.6877 44.7744C64.6752 44.7446 64.6606 44.7157 64.6442 44.6879C64.2865 44.0725 63.9579 43.4716 63.6534 42.8899L63.2861 42.1448C63.0686 41.6977 62.9091 41.3804 62.8028 41.1833L62.3968 44.2023C62.3968 44.3273 62.3968 44.4667 62.3968 44.6254C62.3963 44.6939 62.4211 44.7601 62.4666 44.8116C62.512 44.863 62.5749 44.896 62.6433 44.9042L62.9913 44.9427C63.0734 44.9427 63.1121 44.9667 63.1121 45.0148C63.1121 45.0629 63.0492 45.1109 62.9236 45.1109H62.4016H62.0101H61.6235H61.1643C61.0677 45.1109 61.0242 45.0821 61.0242 45.0148C61.0242 44.9475 61.0677 44.9427 61.1547 44.9427H61.2175H61.2997H61.3867C61.5655 44.909 61.6863 44.6927 61.7443 44.2889L62.5418 39.1738C62.5804 39.0151 62.6288 38.9382 62.6916 38.9382C62.7544 38.9382 62.8366 39.0247 62.9381 39.2026L65.2193 43.5581L67.4764 39.1449C67.5634 39.0055 67.6311 38.9382 67.6746 38.9382C67.7181 38.9382 67.8002 39.0055 67.8244 39.1834Z" fill="#010101"/>
<path d="M72.2757 42.7986V41.39C72.2757 40.4285 72.2757 39.8756 72.2757 39.6978C72.2715 39.5943 72.2417 39.4936 72.1887 39.4045C72.1569 39.3673 72.1178 39.337 72.0737 39.3155C72.0296 39.294 71.9816 39.2817 71.9325 39.2795L71.6136 39.2507C71.5217 39.2507 71.4734 39.2218 71.4734 39.1641C71.4734 39.1064 71.5362 39.0872 71.6619 39.0872H72.2515H72.846C74.1654 39.0872 74.8759 39.0872 74.9774 39.0872H75.1224H75.2626H75.3544H75.4172H75.4849C75.5236 39.0872 75.5429 39.1112 75.5429 39.1593C75.5455 39.1849 75.5455 39.2107 75.5429 39.2362C75.5283 39.2916 75.517 39.3478 75.5091 39.4045C75.4935 39.4903 75.4838 39.577 75.4801 39.6641C75.4801 39.8997 75.4559 40.0823 75.4414 40.2218C75.4269 40.3612 75.4124 40.3516 75.3496 40.3516C75.2867 40.3516 75.2674 40.2987 75.2626 40.2025C75.2666 40.1119 75.25 40.0215 75.2142 39.9381C75.1887 39.8597 75.1355 39.7931 75.0644 39.7506C74.9436 39.6922 74.812 39.6595 74.6778 39.6545C74.4651 39.6545 74.0688 39.6208 73.484 39.6208C73.4453 39.6208 73.426 39.6208 73.426 39.7026V41.6255C73.426 41.6784 73.426 41.7073 73.484 41.7073C74.2186 41.7073 74.6536 41.7073 74.7937 41.7073C74.9475 41.7115 75.0984 41.6659 75.2239 41.5775C75.2771 41.5102 75.3206 41.4717 75.3592 41.4717C75.3979 41.4717 75.4124 41.4717 75.4124 41.539C75.414 41.5694 75.414 41.5999 75.4124 41.6304C75.3991 41.7003 75.3894 41.7709 75.3834 41.8419C75.3681 41.9471 75.3584 42.053 75.3544 42.1592C75.3544 42.2233 75.3544 42.329 75.3544 42.4764C75.3544 42.6239 75.3544 42.7056 75.3544 42.7216C75.3544 42.8178 75.3254 42.8707 75.2674 42.8707C75.2094 42.8707 75.1852 42.8274 75.1852 42.7361C75.1852 42.6447 75.1562 42.5341 75.1562 42.5245C75.1079 42.3322 74.9484 42.2217 74.6729 42.1928C74.5038 42.1928 74.1123 42.164 73.5033 42.164C73.4646 42.164 73.4453 42.1928 73.4453 42.2505V44.0293C73.436 44.1291 73.4485 44.2297 73.4819 44.3243C73.5152 44.4188 73.5687 44.5052 73.6386 44.5773C73.8946 44.6915 74.1764 44.7363 74.4554 44.7071C74.717 44.7228 74.9792 44.6902 75.2287 44.6109C75.3297 44.5675 75.4143 44.4935 75.4704 44.3994C75.5393 44.2794 75.5836 44.1471 75.6009 44.01C75.6009 43.9235 75.6541 43.8802 75.7072 43.8802C75.7604 43.8802 75.7749 43.9331 75.7749 44.0389C75.7818 44.3553 75.7428 44.671 75.6589 44.9763C75.6347 45.0773 75.596 45.135 75.5477 45.1542C75.4401 45.1794 75.3294 45.1891 75.2191 45.183C74.9484 45.183 74.5569 45.183 74.0446 45.159C73.5323 45.135 73.136 45.159 72.8557 45.159H72.3385H71.7827C71.6667 45.159 71.6087 45.1302 71.6087 45.0725C71.6087 45.0196 71.6571 44.9907 71.7537 44.9907L72.0437 44.9619C72.1742 44.9331 72.2564 44.7648 72.2902 44.4812C72.266 44.1975 72.2757 43.6591 72.2757 42.7986ZM74.9629 37.2267C75.0843 37.3577 75.1912 37.5011 75.2819 37.6546C75.3254 37.7507 75.3109 37.794 75.2432 37.794C75.0977 37.8032 74.9552 37.8391 74.8227 37.8998C74.4506 38.044 74.0253 38.2363 73.542 38.4767C73.4946 38.5139 73.4377 38.5372 73.3776 38.544C73.3341 38.544 73.3148 38.544 73.3148 38.4863C73.3334 38.4417 73.3578 38.3997 73.3873 38.3613C73.5323 38.1978 73.7256 37.9959 73.9721 37.7556C74.1401 37.5801 74.3228 37.4193 74.5183 37.2748C74.5885 37.2039 74.6772 37.154 74.7744 37.1306C74.8452 37.1441 74.9106 37.1774 74.9629 37.2267Z" fill="#010101"/>
<path d="M78.9937 42.7986V41.39C78.9937 40.4573 78.9937 39.9045 78.9937 39.7362C78.989 39.6217 78.9576 39.5097 78.9019 39.4093C78.871 39.3672 78.8301 39.3334 78.7829 39.3107C78.7357 39.2881 78.6836 39.2774 78.6313 39.2795L78.3123 39.2507C78.2204 39.2507 78.1721 39.2218 78.1721 39.1641C78.1721 39.1065 78.2301 39.0872 78.3509 39.0872H79.0131H79.564H80.1102H80.8642C81.3475 39.0872 81.7341 39.0872 82.0434 39.1257C82.4106 39.1644 82.7712 39.2501 83.1164 39.3805C83.6684 39.5654 84.145 39.9237 84.4745 40.4015C84.804 40.8792 84.9686 41.4505 84.9433 42.0294C84.9529 42.4399 84.8776 42.848 84.7221 43.2284C84.5666 43.6087 84.3343 43.9533 84.0395 44.2408C83.6658 44.5694 83.2304 44.8214 82.7585 44.9823C82.2866 45.1432 81.7873 45.2098 81.2895 45.1782C81.0672 45.1782 80.753 45.1782 80.3229 45.1302C79.8927 45.0821 79.6414 45.0821 79.5254 45.0821H79.0421H78.4573C78.3461 45.0821 78.2929 45.0533 78.2929 44.9956C78.2929 44.9379 78.3413 44.9138 78.4379 44.9138C78.5353 44.9128 78.6323 44.9032 78.7279 44.885C78.8584 44.8609 78.9406 44.7215 78.9696 44.4619C78.9986 44.2023 79.0131 43.76 79.0131 43.1255V42.7697L78.9937 42.7986ZM80.1005 41.289V42.2746C80.1005 43.1303 80.1005 43.6543 80.1005 43.8562C80.0925 44.0618 80.1287 44.2667 80.2069 44.4571C80.3374 44.6639 80.6902 44.7648 81.2508 44.7648C81.9007 44.8025 82.5415 44.5986 83.0487 44.1927C83.4934 43.8225 83.7205 43.1784 83.7205 42.2457C83.7278 41.89 83.6631 41.5364 83.5303 41.2061C83.3974 40.8757 83.1992 40.5753 82.9472 40.3227C82.647 40.0486 82.295 39.8364 81.9117 39.6986C81.5284 39.5608 81.1214 39.5 80.7143 39.5199C80.535 39.4987 80.3532 39.5252 80.1875 39.5968C80.1637 39.6116 80.1451 39.6335 80.1344 39.6593C80.1186 39.7272 80.1089 39.7964 80.1054 39.866C80.1054 39.9814 80.1054 40.1449 80.1054 40.3468C80.1054 40.5487 80.1005 40.8708 80.1005 41.289Z" fill="#010101"/>
<path d="M88.1429 42.7986V41.39C88.1429 40.4285 88.1429 39.8756 88.1429 39.6978C88.1424 39.5945 88.1141 39.4932 88.0608 39.4045C88.0286 39.3677 87.9894 39.3377 87.9454 39.3163C87.9014 39.2948 87.8535 39.2823 87.8046 39.2795L87.4856 39.2507C87.389 39.2507 87.3455 39.2218 87.3455 39.1641C87.3455 39.1065 87.4035 39.0872 87.534 39.0872H88.1188H88.7181C90.0375 39.0872 90.748 39.0872 90.8447 39.0872H90.9896H91.1346H91.2216H91.2893C91.3116 39.0824 91.3347 39.0824 91.357 39.0872C91.3908 39.0872 91.4101 39.1113 91.4101 39.1593C91.4127 39.1849 91.4127 39.2107 91.4101 39.2363C91.4101 39.2747 91.4101 39.3324 91.3763 39.4045C91.3425 39.4766 91.3763 39.568 91.3521 39.6641C91.3521 39.8997 91.3231 40.0824 91.3135 40.2218C91.3038 40.3612 91.2796 40.3516 91.2168 40.3516C91.154 40.3516 91.1395 40.2987 91.1346 40.2026C91.1386 40.1119 91.1221 40.0216 91.0863 39.9381C91.059 39.8607 91.0062 39.7946 90.9365 39.7507C90.8157 39.6922 90.684 39.6595 90.5498 39.6545C90.3372 39.6545 89.936 39.6208 89.356 39.6208C89.3174 39.6208 89.298 39.6209 89.298 39.7026V41.6256C89.298 41.6784 89.298 41.7073 89.356 41.7073C90.0907 41.7073 90.5257 41.7073 90.661 41.7073C90.8163 41.7122 90.969 41.6666 91.096 41.5775C91.1443 41.5102 91.1878 41.4717 91.2265 41.4717C91.2651 41.4717 91.2845 41.4717 91.2845 41.539C91.2845 41.6063 91.2845 41.5823 91.2845 41.6304C91.2845 41.6784 91.2845 41.7457 91.2555 41.8419C91.2401 41.9471 91.2304 42.053 91.2265 42.1592C91.2265 42.2233 91.2265 42.329 91.2265 42.4765C91.2265 42.6239 91.2265 42.7056 91.2265 42.7216C91.2265 42.8178 91.2265 42.8707 91.1443 42.8707C91.0621 42.8707 91.0573 42.8274 91.0573 42.7361C91.0573 42.6447 91.0283 42.5342 91.0283 42.5245C90.98 42.3322 90.8253 42.2217 90.545 42.1928C90.3758 42.1928 89.9892 42.164 89.3802 42.164C89.3416 42.164 89.3222 42.1928 89.3222 42.2505V44.0293C89.3129 44.1291 89.3254 44.2297 89.3588 44.3243C89.3921 44.4189 89.4456 44.5052 89.5155 44.5773C89.7699 44.6911 90.0501 44.7359 90.3275 44.7071C90.589 44.7228 90.8512 44.6902 91.1008 44.611C91.2022 44.5663 91.288 44.4926 91.3473 44.3994C91.414 44.2785 91.4583 44.1466 91.4778 44.01C91.4971 43.9235 91.531 43.8802 91.5793 43.8802C91.6228 43.8802 91.6469 43.9331 91.6469 44.0389C91.6529 44.3549 91.6155 44.6703 91.5358 44.9763C91.5068 45.0773 91.473 45.135 91.4198 45.1542C91.3123 45.1797 91.2015 45.1895 91.0911 45.1831C90.8205 45.1831 90.429 45.1831 89.9215 45.159C89.414 45.135 89.0129 45.159 88.7277 45.159H88.2154H87.6548C87.5436 45.159 87.4856 45.1302 87.4856 45.0725C87.4856 45.0148 87.534 44.9908 87.6258 44.9908L87.9206 44.9619C88.0511 44.9331 88.1333 44.7648 88.1623 44.4812C88.1284 44.1975 88.1429 43.6591 88.1429 42.7986Z" fill="#010101"/>
<path d="M97.8671 45.2119C96.8375 45.2755 95.819 44.9703 94.9962 44.3514C94.6531 44.0655 94.3812 43.7045 94.2018 43.2967C94.0223 42.8888 93.9402 42.4452 93.9619 42.0005C93.9681 41.6169 94.0434 41.2376 94.1842 40.8804C94.3396 40.4637 94.6011 40.0943 94.943 39.8083C95.6927 39.2196 96.633 38.9238 97.5868 38.9766C97.9895 38.975 98.3919 39.0039 98.7902 39.0632L99.1962 39.1257L99.6118 39.193C99.694 39.193 99.7327 39.2315 99.7327 39.2843C99.7347 39.3115 99.7347 39.3388 99.7327 39.3661C99.7327 39.3997 99.7327 39.4526 99.7327 39.5199C99.7327 39.5872 99.7327 39.6641 99.7327 39.7458C99.7327 39.8276 99.7327 39.9045 99.7327 40.0391C99.7327 40.1737 99.7327 40.2939 99.7327 40.3997C99.7393 40.478 99.7393 40.5568 99.7327 40.6352C99.7327 40.7602 99.6988 40.8227 99.6312 40.8227C99.5635 40.8227 99.5297 40.765 99.5297 40.6448C99.5259 40.3668 99.4132 40.1011 99.2155 39.9045C99.0334 39.7297 98.8085 39.6054 98.5631 39.5439C98.2349 39.4496 97.8945 39.4042 97.5529 39.4093C97.008 39.3805 96.4715 39.5516 96.045 39.8901C95.7787 40.1564 95.5734 40.4769 95.4433 40.8296C95.3131 41.1823 95.2612 41.5587 95.291 41.9332C95.2857 42.3485 95.3647 42.7605 95.523 43.1447C95.6579 43.4795 95.864 43.7812 96.1271 44.0293C96.3705 44.2508 96.6521 44.4267 96.9584 44.5485C97.2443 44.6693 97.5517 44.7314 97.8622 44.7312C98.1691 44.7393 98.4759 44.7103 98.7757 44.6446C98.991 44.5885 99.1846 44.4696 99.3315 44.3033C99.4677 44.1487 99.5609 43.9615 99.6022 43.7601C99.636 43.6447 99.6795 43.5918 99.7327 43.5918C99.7858 43.5918 99.8197 43.6303 99.8197 43.712C99.8074 43.8735 99.7848 44.0341 99.752 44.1927C99.7236 44.3968 99.6833 44.5991 99.6312 44.7985C99.6175 44.8521 99.5904 44.9014 99.5524 44.9417C99.5143 44.9821 99.4666 45.0122 99.4137 45.0292C98.9134 45.1822 98.3895 45.2441 97.8671 45.2119Z" fill="#010101"/>
<path d="M102.99 42.7986V41.39C102.99 40.4573 102.99 39.8997 102.99 39.7266C102.99 39.4766 102.879 39.3324 102.71 39.2939C102.613 39.2754 102.514 39.2642 102.415 39.2603C102.328 39.2603 102.285 39.2266 102.285 39.1641C102.285 39.1016 102.348 39.0872 102.473 39.0872H103.072H103.556H104.039H104.624C104.73 39.0872 104.783 39.1113 104.783 39.1641C104.783 39.217 104.74 39.2603 104.653 39.2603L104.435 39.2843C104.39 39.2896 104.347 39.3043 104.307 39.3275C104.268 39.3507 104.234 39.3819 104.208 39.4189C104.156 39.5166 104.127 39.6254 104.126 39.7362C104.126 39.9045 104.097 40.4573 104.097 41.39V42.7986C104.097 43.6495 104.097 44.2119 104.145 44.4908C104.194 44.7696 104.281 44.8802 104.474 44.9042C104.592 44.9259 104.712 44.9387 104.832 44.9427C104.928 44.9427 104.972 44.9715 104.972 45.0244C104.972 45.0773 104.919 45.1109 104.812 45.1109H104.034H103.522H103.063H102.468C102.357 45.1109 102.299 45.0821 102.299 45.0244C102.299 44.9667 102.348 44.9427 102.439 44.9427L102.695 44.9138C102.845 44.8754 102.927 44.7408 102.947 44.51C102.991 43.9406 103.005 43.3694 102.99 42.7986Z" fill="#010101"/>
<path d="M107.973 43.9379C107.973 43.4908 107.973 42.6928 108.007 41.5342C108.041 40.3756 108.036 39.6112 108.036 39.2362C108.036 39.0391 108.08 38.943 108.162 38.943C108.244 38.943 108.307 39.0199 108.462 39.1786C108.495 39.1786 108.631 39.3372 108.872 39.5776C109.114 39.8179 109.443 40.1448 109.839 40.5391L111.047 41.6928C111.221 41.8563 111.453 42.0774 111.738 42.3611L112.487 43.1014L112.864 43.4716L112.787 40.0054C112.791 39.8347 112.768 39.6644 112.719 39.5006C112.698 39.4506 112.666 39.4056 112.626 39.3683C112.586 39.3311 112.539 39.3025 112.487 39.2843C112.347 39.2606 112.205 39.2462 112.062 39.2411C111.97 39.2411 111.922 39.2074 111.922 39.1449C111.922 39.0824 111.99 39.068 112.13 39.068H112.729H113.174H113.483H114.01C114.131 39.068 114.189 39.0968 114.189 39.1545C114.189 39.2122 114.145 39.2411 114.049 39.2411L113.812 39.2651C113.759 39.2777 113.71 39.3014 113.667 39.3346C113.625 39.3677 113.59 39.4096 113.565 39.4574C113.506 39.6107 113.478 39.7741 113.483 39.9381C113.483 39.9718 113.454 41.6255 113.401 44.8898C113.401 45.0821 113.357 45.1782 113.275 45.1782C113.193 45.1782 113.067 45.0917 112.874 44.9186C112.507 44.5981 111.734 43.8674 110.554 42.7264C110.11 42.313 109.452 41.6592 108.577 40.7506L108.664 44.0004C108.664 44.5196 108.776 44.8081 108.945 44.8657C109.091 44.8959 109.24 44.9136 109.389 44.9186C109.481 44.9186 109.53 44.9427 109.53 44.9907C109.53 45.0388 109.467 45.0869 109.341 45.0869H108.718H108.307H107.949H107.364C107.244 45.0869 107.186 45.058 107.186 45.0004C107.186 44.9427 107.229 44.9186 107.316 44.9186L107.674 44.8802C107.729 44.8658 107.78 44.836 107.819 44.7943C107.858 44.7527 107.885 44.7007 107.896 44.6446C107.943 44.4118 107.969 44.1753 107.973 43.9379Z" fill="#010101"/>
<path d="M117.408 42.7986V41.39C117.408 40.4285 117.408 39.8756 117.408 39.6978C117.403 39.5943 117.373 39.4936 117.321 39.4045C117.257 39.3314 117.166 39.2864 117.069 39.2795L116.745 39.2507C116.654 39.2507 116.605 39.2218 116.605 39.1641C116.605 39.1064 116.668 39.0872 116.794 39.0872H117.383H117.983C119.297 39.0872 120.008 39.0872 120.109 39.0872H120.254H120.394H120.486H120.554C120.575 39.0832 120.596 39.0832 120.617 39.0872C120.655 39.0872 120.675 39.1112 120.675 39.1593C120.677 39.1849 120.677 39.2107 120.675 39.2362C120.675 39.2747 120.675 39.3324 120.641 39.4045C120.607 39.4766 120.641 39.568 120.612 39.6641C120.612 39.8997 120.588 40.0823 120.578 40.2218C120.568 40.3612 120.544 40.3516 120.481 40.3516C120.419 40.3516 120.404 40.2987 120.394 40.2025C120.397 40.1124 120.383 40.0226 120.351 39.9381C120.322 39.8601 120.267 39.7941 120.196 39.7506C120.077 39.6929 119.947 39.6601 119.814 39.6545C119.597 39.6545 119.201 39.6208 118.616 39.6208C118.577 39.6208 118.563 39.6208 118.563 39.7026V41.6255C118.563 41.6784 118.563 41.7073 118.616 41.7073C119.35 41.7073 119.785 41.7073 119.926 41.7073C120.081 41.7122 120.234 41.6666 120.361 41.5775C120.409 41.5102 120.452 41.4717 120.491 41.4717C120.53 41.4717 120.549 41.4717 120.549 41.539C120.551 41.5694 120.551 41.5999 120.549 41.6304C120.549 41.6736 120.549 41.7457 120.549 41.8419C120.534 41.9471 120.524 42.053 120.52 42.1592C120.52 42.2233 120.52 42.329 120.52 42.4765C120.52 42.6239 120.52 42.7056 120.52 42.7216C120.52 42.8178 120.491 42.8707 120.438 42.8707C120.385 42.8707 120.351 42.8274 120.351 42.7361C120.351 42.6447 120.322 42.5341 120.322 42.5245C120.274 42.3322 120.114 42.2217 119.839 42.1928C119.669 42.1928 119.278 42.164 118.669 42.164C118.63 42.164 118.616 42.1928 118.616 42.2505V44.0293C118.605 44.1288 118.616 44.2294 118.649 44.3242C118.681 44.4189 118.734 44.5053 118.804 44.5773C119.06 44.6908 119.342 44.7356 119.621 44.7071C119.883 44.7228 120.145 44.6902 120.394 44.611C120.495 44.5675 120.58 44.4935 120.636 44.3994C120.705 44.2789 120.751 44.147 120.771 44.01C120.771 43.9235 120.825 43.8802 120.873 43.8802C120.921 43.8802 120.941 43.9331 120.941 44.0389C120.947 44.3553 120.908 44.671 120.825 44.9763C120.825 45.0773 120.762 45.135 120.713 45.1542C120.606 45.1797 120.495 45.1895 120.385 45.183C120.114 45.183 119.723 45.183 119.21 45.159C118.698 45.135 118.302 45.159 118.021 45.159H117.509H116.948C116.832 45.159 116.779 45.1302 116.779 45.0725C116.779 45.0148 116.823 44.9907 116.919 44.9907L117.209 44.9619C117.345 44.9331 117.422 44.7648 117.456 44.4812C117.393 44.1975 117.408 43.6591 117.408 42.7986Z" fill="#010101"/>
<path d="M128.301 42.7986V41.39C128.301 40.4285 128.301 39.8756 128.301 39.6978C128.297 39.5944 128.267 39.4936 128.214 39.4045C128.151 39.3314 128.06 39.2864 127.963 39.2795L127.639 39.2507C127.547 39.2507 127.499 39.2218 127.499 39.1641C127.499 39.1065 127.562 39.0872 127.688 39.0872H128.277H128.872C130.191 39.0872 130.902 39.0872 131.003 39.0872H131.148H131.288H131.38H131.448C131.468 39.0827 131.49 39.0827 131.511 39.0872C131.549 39.0872 131.569 39.1113 131.569 39.1593C131.571 39.1849 131.571 39.2107 131.569 39.2363C131.569 39.2747 131.569 39.3324 131.535 39.4045C131.519 39.4903 131.509 39.577 131.506 39.6641C131.506 39.8997 131.506 40.0824 131.467 40.2218C131.428 40.3612 131.438 40.3516 131.375 40.3516C131.312 40.3516 131.298 40.2987 131.288 40.2026C131.291 40.1124 131.276 40.0226 131.245 39.9381C131.216 39.8601 131.161 39.7941 131.09 39.7507C130.969 39.6922 130.838 39.6595 130.703 39.6545C130.491 39.6545 130.094 39.6208 129.51 39.6208C129.471 39.6208 129.452 39.6209 129.452 39.7026V41.6256C129.452 41.6784 129.452 41.7073 129.51 41.7073C130.244 41.7073 130.679 41.7073 130.819 41.7073C130.975 41.7122 131.127 41.6666 131.254 41.5775C131.303 41.5102 131.346 41.4717 131.385 41.4717C131.424 41.4717 131.443 41.4717 131.443 41.539C131.443 41.6063 131.443 41.5823 131.443 41.6304C131.43 41.7003 131.42 41.7709 131.414 41.8419C131.399 41.9471 131.389 42.053 131.385 42.1592C131.385 42.2233 131.385 42.329 131.385 42.4765C131.385 42.6239 131.385 42.7056 131.385 42.7217C131.385 42.8178 131.356 42.8707 131.298 42.8707C131.24 42.8707 131.216 42.8274 131.216 42.7361C131.216 42.6447 131.187 42.5342 131.187 42.5245C131.138 42.3322 130.979 42.2217 130.703 42.1928C130.529 42.1928 130.143 42.164 129.534 42.164C129.495 42.164 129.476 42.1928 129.476 42.2505V44.0293C129.467 44.1291 129.479 44.2297 129.512 44.3243C129.546 44.4189 129.599 44.5052 129.669 44.5773C129.925 44.6909 130.207 44.7356 130.486 44.7071C130.747 44.7228 131.01 44.6902 131.259 44.611C131.359 44.5662 131.444 44.4925 131.501 44.3994C131.57 44.2795 131.614 44.1471 131.631 44.01C131.631 43.9235 131.685 43.8802 131.738 43.8802C131.791 43.8802 131.805 43.9331 131.805 44.0389C131.812 44.3553 131.773 44.6711 131.689 44.9763C131.665 45.0773 131.627 45.135 131.578 45.1542C131.471 45.1794 131.36 45.1891 131.25 45.1831C130.979 45.1831 130.587 45.1831 130.075 45.159C129.563 45.135 129.166 45.159 128.886 45.159H128.374H127.813C127.697 45.159 127.644 45.1302 127.644 45.0725C127.644 45.0148 127.688 44.9908 127.784 44.9908L128.074 44.9619C128.205 44.9331 128.287 44.7648 128.321 44.4812C128.287 44.1975 128.301 43.6591 128.301 42.7986Z" fill="#010101"/>
<path d="M135.624 45.2119C135.2 45.2267 134.777 45.1564 134.382 45.0052C134.329 44.9843 134.284 44.9465 134.255 44.8977C134.227 44.849 134.215 44.7921 134.222 44.736C134.222 44.3898 134.222 44.0245 134.261 43.6495C134.261 43.5101 134.304 43.4428 134.362 43.4428C134.42 43.4428 134.444 43.486 134.459 43.5774C134.466 43.702 134.484 43.8259 134.512 43.9475C134.585 44.217 134.757 44.4489 134.995 44.5965C135.223 44.7405 135.489 44.8141 135.759 44.8081C136.053 44.8277 136.343 44.7349 136.571 44.5485C136.659 44.4728 136.73 44.3791 136.778 44.2737C136.827 44.1683 136.852 44.0538 136.851 43.9379C136.852 43.7265 136.796 43.5187 136.687 43.337C136.519 43.0836 136.3 42.8675 136.044 42.7024L135.648 42.4044C135.271 42.1429 134.944 41.8174 134.681 41.4429C134.492 41.158 134.394 40.8227 134.401 40.4814C134.398 40.2695 134.445 40.06 134.537 39.869C134.629 39.678 134.765 39.5108 134.933 39.3805C135.336 39.0773 135.834 38.9242 136.339 38.9478C136.621 38.9551 136.902 38.984 137.18 39.0344L137.354 39.0584L137.518 39.0872C137.531 39.0878 137.544 39.0911 137.556 39.0968C137.568 39.1025 137.578 39.1105 137.587 39.1204C137.596 39.1303 137.602 39.1419 137.606 39.1543C137.61 39.1668 137.611 39.18 137.61 39.193V39.491C137.61 39.6978 137.61 39.9285 137.61 40.1833C137.61 40.3468 137.581 40.4285 137.518 40.4285C137.455 40.4285 137.436 40.3756 137.426 40.2651C137.406 40.084 137.341 39.9107 137.238 39.7603C137.129 39.6111 136.982 39.4937 136.812 39.4202C136.642 39.3466 136.455 39.3196 136.271 39.342C136.015 39.3274 135.761 39.404 135.556 39.5584C135.47 39.6285 135.401 39.7174 135.355 39.8183C135.309 39.9192 135.287 40.0293 135.29 40.1401C135.294 40.3312 135.358 40.5164 135.474 40.6689C135.662 40.8983 135.885 41.0963 136.136 41.2554L136.402 41.4284C136.815 41.702 137.174 42.0491 137.46 42.4524C137.668 42.759 137.776 43.1214 137.77 43.4908C137.777 43.7771 137.705 44.0599 137.563 44.3089C137.421 44.558 137.213 44.7638 136.962 44.9042C136.552 45.1255 136.09 45.2318 135.624 45.2119Z" fill="#010101"/>
<path d="M143.183 39.568V42.8082C143.183 43.6976 143.183 44.2504 143.221 44.4956C143.26 44.7408 143.361 44.8994 143.55 44.9139L143.956 44.9523C144.053 44.9523 144.096 44.9764 144.096 45.0244C144.096 45.0725 144.043 45.1206 143.932 45.1206H143.139H142.603H142.119H141.525C141.409 45.1206 141.351 45.0917 141.351 45.0244C141.351 44.9571 141.399 44.9523 141.496 44.9523L141.776 44.9235C141.916 44.8946 141.999 44.7456 142.032 44.486C142.066 44.2264 142.071 43.6976 142.071 42.8082V39.568C141.448 39.568 141.013 39.568 140.761 39.568C140.588 39.5742 140.416 39.6016 140.249 39.6497C140.153 39.6878 140.074 39.7596 140.027 39.8516C139.983 39.9367 139.946 40.0251 139.915 40.116C139.915 40.1737 139.862 40.2073 139.819 40.2073C139.775 40.2073 139.741 40.1641 139.741 40.0679C139.748 39.9724 139.763 39.8775 139.785 39.7843C139.814 39.6497 139.843 39.5103 139.877 39.366C139.911 39.2218 139.925 39.1449 139.925 39.1305C139.925 39.0199 139.973 38.9622 140.017 38.9622C140.059 38.9716 140.099 38.9862 140.138 39.0055C140.211 39.0332 140.287 39.051 140.365 39.0584C140.646 39.0888 140.928 39.1033 141.211 39.1016H144.546C144.735 39.1005 144.924 39.086 145.111 39.0584H145.208H145.295H145.348C145.387 39.0584 145.411 39.1209 145.411 39.2459C145.411 39.2939 145.411 39.4478 145.411 39.6978C145.411 39.9477 145.411 40.116 145.411 40.1785C145.411 40.241 145.372 40.3035 145.329 40.3035C145.285 40.3035 145.251 40.2554 145.242 40.1497C145.243 40.1337 145.243 40.1176 145.242 40.1016C145.242 40.1016 145.242 40.0583 145.242 40.0439C145.242 39.7554 144.913 39.6112 144.328 39.6016L143.183 39.568Z" fill="#010101"/>
<path d="M149.466 41.5967H152.515C152.554 41.5967 152.573 41.5967 152.573 41.5438V41.3756C152.573 40.4141 152.573 39.8756 152.573 39.7074C152.569 39.6018 152.538 39.499 152.481 39.4093C152.41 39.3386 152.316 39.2944 152.216 39.2843H152.133H152.013C151.977 39.2804 151.942 39.2804 151.906 39.2843C151.805 39.2843 151.752 39.2507 151.752 39.1882C151.752 39.1257 151.81 39.1112 151.926 39.1112H152.631H153.148H153.632H154.246C154.352 39.1112 154.41 39.1353 154.41 39.1882C154.41 39.241 154.362 39.2843 154.265 39.2843L154.023 39.3083C153.98 39.3109 153.938 39.3221 153.899 39.341C153.86 39.36 153.825 39.3865 153.796 39.4189C153.743 39.5148 153.715 39.6221 153.714 39.7314C153.714 39.8997 153.714 40.4621 153.714 41.414V42.8226C153.714 43.712 153.714 44.2648 153.757 44.5004C153.801 44.7359 153.883 44.909 154.076 44.9379H154.304H154.492C154.579 44.9379 154.627 44.9667 154.627 45.0196C154.627 45.0725 154.569 45.1061 154.463 45.1061H153.67H153.119H152.636H152.042C151.926 45.1061 151.872 45.0773 151.872 45.0196C151.872 44.9619 151.916 44.9379 152.003 44.9379L152.293 44.909C152.423 44.8802 152.51 44.7263 152.539 44.4619C152.568 44.1975 152.588 43.6927 152.588 42.813V42.1303C152.588 42.0967 152.588 42.0774 152.53 42.0774H149.48C149.441 42.0774 149.422 42.0774 149.422 42.1303V42.8418C149.41 43.3887 149.426 43.9359 149.47 44.4811C149.47 44.7359 149.601 44.8754 149.799 44.8994L150.205 44.9379C150.302 44.9379 150.345 44.9667 150.345 45.0196C150.345 45.0725 150.287 45.1061 150.176 45.1061H149.388H148.837H148.354H147.75C147.643 45.1061 147.59 45.0773 147.59 45.0196C147.59 44.9667 147.634 44.9379 147.721 44.9379L148.016 44.909C148.161 44.8802 148.243 44.7263 148.262 44.4619C148.281 44.1975 148.306 43.6831 148.306 42.7937V41.3852C148.306 40.4237 148.306 39.866 148.306 39.7122C148.302 39.6065 148.27 39.5038 148.214 39.4141C148.14 39.3364 148.04 39.2884 147.933 39.2795L147.634 39.2555C147.542 39.2555 147.494 39.2218 147.494 39.1593C147.494 39.0968 147.552 39.0824 147.663 39.0824H148.359H148.876H149.388H149.978C150.099 39.0824 150.157 39.1113 150.157 39.1689C150.157 39.2266 150.108 39.2555 150.007 39.2555H149.891H149.76C149.716 39.2581 149.673 39.2702 149.634 39.291C149.594 39.3117 149.56 39.3406 149.533 39.3757C149.484 39.473 149.456 39.5794 149.451 39.6881C149.451 39.8564 149.451 40.4093 149.451 41.3467V41.515C149.408 41.5823 149.427 41.5967 149.466 41.5967Z" fill="#010101"/>
<path d="M157.779 42.7986V41.39C157.779 40.4285 157.779 39.8756 157.779 39.6978C157.779 39.5936 157.749 39.4916 157.692 39.4045C157.661 39.3672 157.623 39.3368 157.579 39.3152C157.536 39.2937 157.489 39.2815 157.44 39.2795L157.121 39.2507C157.025 39.2507 156.976 39.2218 156.976 39.1641C156.976 39.1113 157.044 39.0872 157.165 39.0872H157.754H158.354C159.673 39.0872 160.384 39.0872 160.48 39.0872H160.625H160.77C160.799 39.084 160.828 39.084 160.857 39.0872H160.925C160.946 39.0832 160.967 39.0832 160.988 39.0872C161.026 39.0872 161.046 39.1112 161.046 39.1593C161.048 39.1849 161.048 39.2107 161.046 39.2362C161.046 39.2747 161.046 39.3324 161.012 39.4045C160.978 39.4766 161.012 39.568 161.012 39.6641C161.012 39.8997 160.983 40.0823 160.973 40.2218C160.964 40.3612 160.939 40.3516 160.877 40.3516C160.814 40.3516 160.799 40.2987 160.794 40.2025C160.796 40.1121 160.78 40.0222 160.746 39.9381C160.719 39.8607 160.666 39.7946 160.596 39.7506C160.475 39.693 160.344 39.6603 160.21 39.6545C159.997 39.6545 159.596 39.6208 159.016 39.6208C158.977 39.6208 158.958 39.6208 158.958 39.7026V41.6255C158.958 41.6784 158.958 41.7073 159.016 41.7073C159.746 41.7073 160.186 41.7073 160.321 41.7073C160.476 41.7122 160.629 41.6666 160.756 41.5775C160.804 41.5102 160.848 41.4717 160.886 41.4717C160.925 41.4717 160.944 41.4717 160.944 41.539C160.944 41.6063 160.944 41.5823 160.944 41.6303C160.944 41.6784 160.944 41.7457 160.915 41.8419C160.886 41.938 160.915 42.0438 160.886 42.1592C160.857 42.2745 160.886 42.3274 160.886 42.4764C160.886 42.6255 160.886 42.7072 160.886 42.7216C160.886 42.8178 160.886 42.8707 160.804 42.8707C160.722 42.8707 160.717 42.8274 160.717 42.7361C160.717 42.6447 160.688 42.5341 160.688 42.5245C160.64 42.3322 160.48 42.2217 160.205 42.1928C160.036 42.1928 159.644 42.164 159.04 42.164C159.001 42.164 158.982 42.1928 158.982 42.2505V44.0293C158.972 44.1291 158.984 44.23 159.017 44.3247C159.051 44.4195 159.105 44.5057 159.175 44.5773C159.43 44.6911 159.71 44.7359 159.987 44.7071C160.249 44.7228 160.511 44.6902 160.761 44.6109C160.862 44.5662 160.948 44.4926 161.007 44.3994C161.072 44.2776 161.116 44.146 161.138 44.01C161.157 43.9235 161.191 43.8802 161.239 43.8802C161.283 43.8802 161.307 43.9331 161.307 44.0389C161.313 44.3549 161.275 44.6703 161.196 44.9763C161.167 45.0773 161.133 45.135 161.08 45.1542C160.972 45.1797 160.861 45.1895 160.751 45.183C160.48 45.183 160.089 45.183 159.577 45.159C159.064 45.135 158.668 45.159 158.388 45.159H157.875H157.315C157.203 45.159 157.145 45.1302 157.145 45.0725C157.145 45.0148 157.194 44.9907 157.286 44.9907L157.576 44.9619C157.711 44.9331 157.793 44.7648 157.822 44.4812C157.764 44.1975 157.779 43.6591 157.779 42.7986ZM160.466 37.2267C160.59 37.3551 160.697 37.4989 160.785 37.6546C160.833 37.7507 160.819 37.794 160.751 37.794C160.604 37.8032 160.46 37.839 160.326 37.8998C159.954 38.044 159.528 38.2363 159.045 38.4767C159 38.5145 158.944 38.5379 158.885 38.544C158.842 38.544 158.818 38.544 158.818 38.4863C158.839 38.4422 158.865 38.4003 158.895 38.3613C159.04 38.1978 159.233 37.9959 159.475 37.7556C159.644 37.5797 159.829 37.4189 160.026 37.2748C160.095 37.2045 160.182 37.1546 160.277 37.1306C160.348 37.1441 160.414 37.1774 160.466 37.2267Z" fill="#010101"/>
<path d="M166.667 39.568V42.8082C166.667 43.6976 166.667 44.2504 166.705 44.4956C166.744 44.7408 166.846 44.8994 167.034 44.9139L167.44 44.9523C167.532 44.9523 167.58 44.9764 167.58 45.0244C167.58 45.0725 167.522 45.1206 167.411 45.1206H166.618H166.082H165.599H165.004C164.893 45.1206 164.835 45.0917 164.835 45.0244C164.835 44.9571 164.883 44.9523 164.975 44.9523L165.26 44.9235C165.396 44.8946 165.483 44.7456 165.512 44.486C165.541 44.2264 165.55 43.6976 165.55 42.8082V39.568C164.927 39.568 164.492 39.568 164.241 39.568C164.067 39.5746 163.895 39.6021 163.728 39.6497C163.632 39.6878 163.553 39.7596 163.506 39.8516C163.506 39.8804 163.453 39.9718 163.395 40.116C163.395 40.1737 163.346 40.2073 163.298 40.2073C163.25 40.2073 163.226 40.1641 163.226 40.0679C163.232 39.9724 163.247 39.8775 163.269 39.7843C163.293 39.6497 163.327 39.5103 163.356 39.366C163.376 39.2884 163.392 39.2098 163.404 39.1305C163.404 39.0199 163.453 38.9622 163.496 38.9622C163.54 38.972 163.582 38.9865 163.622 39.0055C163.695 39.0338 163.771 39.0516 163.849 39.0584C164.13 39.089 164.412 39.1034 164.695 39.1016H168.025C168.214 39.1009 168.403 39.0864 168.59 39.0584H168.692H168.774H168.827C168.871 39.0584 168.895 39.1209 168.895 39.2459C168.895 39.2939 168.895 39.4478 168.895 39.6978C168.895 39.9477 168.895 40.116 168.895 40.1785C168.895 40.241 168.856 40.3035 168.808 40.3035C168.76 40.3035 168.731 40.2554 168.726 40.1497C168.727 40.1337 168.727 40.1176 168.726 40.1016C168.724 40.0824 168.724 40.0631 168.726 40.0439C168.702 39.7554 168.397 39.6112 167.812 39.6016L166.667 39.568Z" fill="#010101"/>
<path d="M171.78 42.7986V41.39C171.78 40.4573 171.78 39.8997 171.78 39.7266C171.78 39.4766 171.664 39.3324 171.495 39.2939C171.4 39.275 171.303 39.2637 171.205 39.2603C171.118 39.2603 171.075 39.2266 171.075 39.1641C171.075 39.1016 171.137 39.0872 171.263 39.0872H171.862H172.346H172.829H173.414C173.52 39.0872 173.573 39.1113 173.573 39.1641C173.573 39.217 173.53 39.2603 173.443 39.2603L173.225 39.2843C173.18 39.289 173.136 39.3034 173.097 39.3267C173.058 39.3499 173.024 39.3814 172.998 39.4189C172.946 39.5166 172.917 39.6254 172.916 39.7362C172.916 39.9045 172.887 40.4573 172.887 41.39V42.7986C172.887 43.6495 172.887 44.2119 172.935 44.4908C172.984 44.7696 173.066 44.8802 173.259 44.9042C173.379 44.9257 173.5 44.9385 173.622 44.9427C173.714 44.9427 173.762 44.9715 173.762 45.0244C173.762 45.0773 173.709 45.1109 173.602 45.1109H172.824H172.312H171.829H171.234C171.123 45.1109 171.07 45.0821 171.07 45.0244C171.07 44.9667 171.118 44.9427 171.21 44.9427L171.461 44.9138C171.616 44.8754 171.698 44.7408 171.717 44.51C171.737 44.2792 171.78 43.7168 171.78 42.7986Z" fill="#010101"/>
<path d="M180.697 45.034C180.304 45.1613 179.893 45.2215 179.479 45.2119C178.951 45.2231 178.427 45.1266 177.938 44.9283C177.525 44.7672 177.16 44.5061 176.874 44.1687C176.622 43.8692 176.426 43.5273 176.294 43.1591C176.166 42.8062 176.1 42.4336 176.101 42.0582C176.103 41.7014 176.17 41.348 176.299 41.015C176.444 40.6622 176.647 40.3357 176.899 40.0487C177.194 39.715 177.565 39.4562 177.981 39.2939C178.471 39.0909 178.997 38.9911 179.528 39.0007C180.418 38.959 181.291 39.2526 181.973 39.8228C182.273 40.0938 182.511 40.4263 182.669 40.7972C182.828 41.1681 182.904 41.5688 182.892 41.9717C182.904 42.5276 182.755 43.0751 182.461 43.5485C182.211 43.9504 181.882 44.2985 181.495 44.5725L183.124 45.385C184.176 45.959 185.346 46.2877 186.545 46.3465C187.081 46.3558 187.614 46.2644 188.116 46.0773C188.158 46.0584 188.202 46.0454 188.247 46.0388C188.305 46.0388 188.334 46.0628 188.334 46.1109C188.334 46.159 188.295 46.1974 188.227 46.2359C187.38 46.6578 186.444 46.8721 185.497 46.8609C184.933 46.8691 184.371 46.7863 183.834 46.6157C183.199 46.4017 182.59 46.1196 182.017 45.7744L180.697 45.034ZM179.784 44.7744C179.932 44.7753 180.079 44.7608 180.224 44.7312C180.394 44.6914 180.558 44.6249 180.707 44.5341C180.897 44.4336 181.062 44.2924 181.19 44.1206C181.343 43.8941 181.453 43.6415 181.514 43.3755C181.611 43.0002 181.656 42.6138 181.65 42.2265C181.694 41.4773 181.452 40.739 180.973 40.1593C180.774 39.9186 180.524 39.725 180.241 39.5928C179.957 39.4605 179.648 39.3929 179.334 39.3949C179.071 39.3879 178.809 39.4366 178.566 39.5377C178.322 39.6388 178.103 39.79 177.923 39.9814C177.504 40.5111 177.305 41.1804 177.367 41.8515C177.329 42.6215 177.579 43.3783 178.068 43.9764C178.279 44.229 178.543 44.4318 178.843 44.5698C179.142 44.7079 179.469 44.7778 179.798 44.7744H179.784Z" fill="#010101"/>
<path d="M186.869 41.39V42.5245C186.852 42.9518 186.906 43.379 187.029 43.7889C187.118 44.0606 187.286 44.2999 187.512 44.4764C187.793 44.6775 188.133 44.7821 188.479 44.7744C188.68 44.7841 188.882 44.7534 189.071 44.684C189.26 44.6146 189.434 44.508 189.581 44.3706C189.737 44.2178 189.85 44.0273 189.909 43.8177C189.973 43.6127 190.015 43.4017 190.035 43.188C190.035 43.0053 190.035 42.7361 190.035 42.3851V41.39C190.035 40.7971 190.025 40.249 190.006 39.7458C190.004 39.6335 189.976 39.5232 189.924 39.4237C189.858 39.3493 189.767 39.3028 189.668 39.2939C189.569 39.2735 189.469 39.2623 189.368 39.2603C189.271 39.2603 189.223 39.2314 189.223 39.1737C189.223 39.1161 189.286 39.0872 189.402 39.0872H189.827H190.223H190.383H190.784H191.35C191.47 39.0872 191.533 39.1161 191.533 39.1737C191.533 39.2314 191.48 39.2603 191.379 39.2603C191.297 39.2646 191.216 39.2758 191.137 39.2939C191.093 39.2974 191.051 39.3109 191.013 39.3335C190.975 39.356 190.943 39.3869 190.919 39.4237C190.872 39.5215 190.846 39.6279 190.842 39.7362C190.842 39.9862 190.818 40.5391 190.818 41.39V42.2361C190.826 42.7219 190.771 43.2067 190.654 43.6783C190.551 44.0684 190.328 44.4165 190.016 44.6735C189.526 45.0545 188.917 45.2519 188.295 45.2311C187.627 45.2775 186.965 45.083 186.429 44.6831C185.946 44.2648 185.685 43.5629 185.685 42.5822V41.4092C185.685 40.4766 185.685 39.9189 185.685 39.7458C185.679 39.6412 185.65 39.5392 185.598 39.4478C185.538 39.374 185.451 39.3259 185.357 39.3132C185.244 39.2909 185.129 39.2796 185.013 39.2795C184.917 39.2795 184.864 39.2459 184.864 39.1834C184.864 39.1209 184.931 39.1065 185.062 39.1065H185.743H186.28H186.763H187.348C187.473 39.1065 187.536 39.1353 187.536 39.193C187.536 39.2507 187.488 39.2795 187.396 39.2795L187.15 39.3132C186.951 39.3468 186.855 39.4959 186.845 39.7651C186.879 39.9141 186.869 40.4622 186.869 41.39Z" fill="#010101"/>
<path d="M194.554 42.7986V41.39C194.554 40.4285 194.554 39.8756 194.554 39.6978C194.551 39.5948 194.523 39.4941 194.472 39.4045C194.406 39.3311 194.314 39.2862 194.216 39.2795L193.897 39.2507C193.805 39.2507 193.757 39.2218 193.757 39.1641C193.757 39.1064 193.815 39.0872 193.945 39.0872H194.53H195.129C196.449 39.0872 197.154 39.0872 197.256 39.0872H197.406H197.546C197.576 39.0838 197.607 39.0838 197.638 39.0872H197.7H197.763C197.802 39.0872 197.821 39.1113 197.821 39.1593C197.824 39.1849 197.824 39.2107 197.821 39.2362C197.821 39.2747 197.821 39.3324 197.787 39.4045C197.754 39.4766 197.787 39.568 197.758 39.6641C197.758 39.8997 197.758 40.0823 197.725 40.2218C197.691 40.3612 197.691 40.3516 197.633 40.3516C197.575 40.3516 197.551 40.2987 197.546 40.2025C197.55 40.1119 197.533 40.0216 197.497 39.9381C197.469 39.8615 197.416 39.7959 197.348 39.7506C197.227 39.6922 197.095 39.6595 196.961 39.6545C196.748 39.6545 196.347 39.6208 195.767 39.6208C195.729 39.6208 195.709 39.6208 195.709 39.7026V41.6255C195.709 41.6784 195.709 41.7073 195.767 41.7073C196.502 41.7073 196.937 41.7073 197.072 41.7073C197.227 41.7122 197.38 41.6666 197.507 41.5775C197.555 41.5102 197.599 41.4717 197.638 41.4717C197.676 41.4717 197.696 41.4717 197.696 41.539C197.696 41.6063 197.696 41.5823 197.696 41.6304C197.696 41.6784 197.696 41.7457 197.667 41.8419C197.638 41.938 197.667 42.0438 197.667 42.1592C197.667 42.2746 197.667 42.3274 197.667 42.4765C197.667 42.6255 197.667 42.7072 197.667 42.7216C197.667 42.8178 197.638 42.8707 197.584 42.8707C197.531 42.8707 197.502 42.8274 197.502 42.7361C197.502 42.6447 197.473 42.5341 197.473 42.5245C197.441 42.4241 197.375 42.3372 197.288 42.2773C197.201 42.2173 197.096 42.1877 196.99 42.1928C196.821 42.1928 196.434 42.164 195.825 42.164C195.787 42.164 195.767 42.1928 195.767 42.2505V44.0293C195.758 44.1291 195.77 44.2297 195.804 44.3243C195.837 44.4188 195.891 44.5052 195.961 44.5773C196.217 44.6915 196.498 44.7363 196.777 44.7071C197.037 44.723 197.298 44.6904 197.546 44.611C197.647 44.5663 197.733 44.4926 197.792 44.3994C197.859 44.2785 197.903 44.1466 197.923 44.01C197.942 43.9235 197.976 43.8802 198.024 43.8802C198.073 43.8802 198.092 43.9331 198.092 44.0389C198.098 44.3549 198.06 44.6703 197.981 44.9763C197.977 45.0129 197.964 45.0481 197.944 45.079C197.924 45.1099 197.897 45.1356 197.865 45.1542C197.757 45.18 197.647 45.1897 197.536 45.183C197.265 45.183 196.879 45.183 196.367 45.159C195.854 45.135 195.458 45.159 195.173 45.159H194.66H194.1C193.989 45.159 193.931 45.1302 193.931 45.0725C193.931 45.0148 193.979 44.9907 194.071 44.9907L194.366 44.9619C194.496 44.9331 194.578 44.7648 194.607 44.4812C194.54 44.1975 194.554 43.6591 194.554 42.7986Z" fill="#010101"/>
<path d="M63.6437 17.0403C63.6906 16.2824 63.5495 15.5246 63.2329 14.8336C62.9574 14.3529 62.4064 14.1173 61.5848 14.1173H61V13.5308H63.6437C64.2008 13.5012 64.7574 13.5965 65.2725 13.8097C65.4645 13.9164 65.6325 14.0609 65.7663 14.2345C65.9002 14.4081 65.9969 14.6071 66.0506 14.8192C66.2378 15.5442 66.3176 16.2924 66.2874 17.0403V31.6501H76.7173V32.8375H63.6437V17.0403Z" fill="#010101"/>
<path d="M110.917 32.876C109.989 32.6429 109.122 32.215 108.374 31.6212C108.081 31.4028 107.842 31.1209 107.675 30.7969C107.507 30.4729 107.416 30.1153 107.408 29.7511V26.6263H107.934C108.257 28.5717 108.901 29.9787 109.868 30.8472C110.834 31.7126 112.149 32.1501 113.836 32.1501C114.802 32.1763 115.752 31.9005 116.552 31.3616C116.913 31.1214 117.206 30.7935 117.404 30.4091C117.602 30.0246 117.698 29.5963 117.683 29.1646C117.696 28.3861 117.425 27.6293 116.919 27.0349C116.208 26.2695 115.373 25.6277 114.45 25.136L110.839 23.0015C109.801 22.4485 108.893 21.6815 108.176 20.7516C107.641 19.925 107.371 18.9558 107.403 17.9729C107.376 17.2925 107.504 16.6149 107.775 15.99C108.047 15.3652 108.457 14.809 108.974 14.3625C110.134 13.4189 111.604 12.936 113.101 13.0068C114.105 13.0068 115.105 13.1493 116.069 13.4299C116.951 13.6669 117.774 14.0844 118.485 14.6558C118.776 14.8727 119.015 15.1523 119.182 15.4736C119.349 15.795 119.442 16.1497 119.452 16.5114V19.6411H118.901C118.572 17.6893 117.934 16.2759 117.006 15.4442C116.078 14.6125 114.769 14.175 113.087 14.175C112.221 14.1606 111.377 14.45 110.704 14.9923C110.376 15.2422 110.112 15.5659 109.934 15.937C109.755 16.308 109.668 16.7158 109.679 17.1268C109.654 17.8604 109.922 18.5742 110.424 19.1123C111.179 19.8295 112.024 20.4482 112.937 20.9535L116.552 23.088C117.611 23.6659 118.565 24.4167 119.375 25.3091C119.943 26.0552 120.233 26.9745 120.196 27.9099C120.227 28.6453 120.095 29.3785 119.811 30.058C119.526 30.7374 119.095 31.3464 118.548 31.8424C117.453 32.8231 115.966 33.3151 114.087 33.3183C113.015 33.3179 111.948 33.169 110.917 32.876Z" fill="#010101"/>
<path d="M129.688 17.0403C129.738 16.2822 129.597 15.5238 129.278 14.8337C129.002 14.3529 128.456 14.1174 127.634 14.1174H127.045V13.5309H139.563C141.232 13.5309 142.064 14.3097 142.061 15.8673V18.0595H141.472C141.472 15.824 140.249 14.6943 137.798 14.6943H132.337V22.2948H140.268V23.463H132.337V31.6357H137.475C138.58 31.6982 139.681 31.4482 140.65 30.9146C141.51 30.3039 142.148 29.4341 142.472 28.4339L143.057 28.5782L142.032 31.3569C141.882 31.8098 141.581 32.1987 141.18 32.4606C140.779 32.7224 140.301 32.8417 139.823 32.7991H129.674L129.688 17.0403Z" fill="#010101"/>
<path d="M152.138 17.0403C152.187 16.2818 152.044 15.5233 151.723 14.8336C151.452 14.3529 150.901 14.1173 150.079 14.1173H149.49V13.5308H152.138C152.695 13.5012 153.252 13.5965 153.767 13.8097C153.959 13.9164 154.127 14.0609 154.261 14.2345C154.395 14.4081 154.491 14.6071 154.545 14.8192C154.732 15.5442 154.812 16.2924 154.782 17.0403V31.6501H165.212V32.8375H152.138V17.0403Z" fill="#010101"/>
<path d="M173.747 32.5443C173.556 32.437 173.388 32.2922 173.254 32.1187C173.121 31.9452 173.024 31.7465 172.969 31.5347C172.782 30.8098 172.702 30.0616 172.732 29.3137V13.5309H175.376V29.3137C175.33 30.0716 175.471 30.8292 175.787 31.5203C176.062 32.0011 176.608 32.2366 177.435 32.2366H178.02V32.8376H175.376C174.818 32.8623 174.261 32.7621 173.747 32.5443Z" fill="#010101"/>
<path d="M188.716 32.876C187.788 32.6429 186.921 32.2151 186.173 31.6213C185.88 31.4028 185.641 31.1209 185.474 30.7969C185.306 30.473 185.215 30.1154 185.207 29.7512V26.6263H185.734C186.056 28.5717 186.7 29.9787 187.667 30.8473C188.633 31.7126 189.948 32.1501 191.635 32.1501C192.601 32.1763 193.551 31.9005 194.351 31.3617C194.712 31.1214 195.005 30.7936 195.203 30.4091C195.401 30.0246 195.497 29.5963 195.482 29.1646C195.495 28.3861 195.224 27.6293 194.718 27.035C194.008 26.2706 193.175 25.6289 192.253 25.136L188.638 23.0015C187.6 22.4496 186.694 21.6823 185.98 20.7516C185.441 19.9264 185.169 18.9565 185.202 17.9729C185.175 17.2925 185.303 16.6149 185.575 15.9901C185.846 15.3652 186.256 14.809 186.773 14.3625C187.933 13.4198 189.403 12.9369 190.9 13.0068C191.905 13.0072 192.904 13.1496 193.868 13.4299C194.751 13.6659 195.574 14.0835 196.284 14.6558C196.575 14.8728 196.814 15.1523 196.981 15.4737C197.148 15.795 197.241 16.1497 197.251 16.5115V19.6411H196.714C196.381 17.6893 195.748 16.2759 194.815 15.4442C193.882 14.6125 192.582 14.175 190.895 14.175C190.029 14.1606 189.186 14.45 188.513 14.9923C188.185 15.2427 187.921 15.5666 187.743 15.9375C187.565 16.3084 187.478 16.7159 187.488 17.1268C187.464 17.8611 187.733 18.575 188.237 19.1123C188.991 19.8318 189.836 20.4508 190.75 20.9535L194.361 23.088C195.42 23.666 196.374 24.4167 197.183 25.3091C197.752 26.0553 198.042 26.9745 198.005 27.9099C198.035 28.6449 197.904 29.3775 197.62 30.0568C197.336 30.736 196.907 31.3454 196.362 31.8424C195.263 32.8263 193.769 33.3183 191.881 33.3183C190.811 33.3173 189.745 33.1684 188.716 32.876Z" fill="#010101"/>
<path d="M101.502 32.2366C100.818 32.2081 100.166 31.9448 99.6555 31.4915C99.0582 30.8045 98.59 30.0164 98.2732 29.1647L91.7871 13.5309H90.9075L82.6912 32.8183H84.0106L86.1469 27.7801L86.2097 27.6311L87.2633 25.0447L90.4773 17.622L92.6909 22.9438L95.0833 28.5445L95.325 29.1647C95.8695 30.6646 96.6042 31.6725 97.5289 32.1885C98.3737 32.6871 99.3354 32.9557 100.318 32.9673C100.716 32.9797 101.115 32.936 101.502 32.8375V32.2366Z" fill="#010101"/>
</svg>
