<svg xmlns="http://www.w3.org/2000/svg" xmlns:xlink="http://www.w3.org/1999/xlink" width="609px" height="201px" viewBox="0 0 609 201"><title>logo</title><desc>Created with Sketch.</desc><defs></defs><g id="Page-1" stroke="none" stroke-width="1" fill="none" fill-rule="evenodd"><g id="logo" fill-rule="nonzero"><path d="M13.1,191.2 C11.2,191.2 9.5,190.9 7.9,190.2 C6.3,189.5 4.9,188.5 3.8,187.2 C2.6,185.9 1.7,184.3 1.1,182.3 C0.4,180.4 0.1,178.2 0.1,175.8 C0.1,173.4 0.4,171.2 1.1,169.3 C1.8,167.4 2.7,165.8 3.9,164.4 C5.1,163.1 6.5,162 8.1,161.3 C9.7,160.6 11.5,160.2 13.4,160.2 C15.2,160.2 16.8,160.6 18.2,161.3 C19.6,162 20.7,162.9 21.6,163.9 L19.6,166.4 C18.8,165.6 17.9,164.9 16.9,164.4 C15.9,163.9 14.8,163.6 13.5,163.6 C12.1,163.6 10.8,163.9 9.6,164.4 C8.4,165 7.5,165.8 6.6,166.8 C5.8,167.8 5.1,169.1 4.7,170.6 C4.3,172.1 4,173.8 4,175.6 C4,177.5 4.2,179.2 4.7,180.7 C5.1,182.2 5.8,183.5 6.5,184.5 C7.3,185.6 8.3,186.4 9.4,187 C10.5,187.6 11.8,187.9 13.2,187.9 C14.7,187.9 15.9,187.6 17,187 C18.1,186.4 19.1,185.6 20.1,184.5 L22.2,186.9 C21,188.3 19.7,189.3 18.2,190.1 C16.8,190.8 15.1,191.2 13.1,191.2 Z" id="Shape" fill="#34C665"></path><path d="M27.5,190.7 L27.5,158.3 L31.2,158.3 L31.2,167.1 L31.1,171.7 C32.2,170.7 33.3,169.8 34.4,169.1 C35.6,168.4 36.9,168 38.5,168 C40.8,168 42.5,168.7 43.6,170.2 C44.7,171.7 45.2,173.8 45.2,176.7 L45.2,190.7 L41.5,190.7 L41.5,177.2 C41.5,175.1 41.2,173.6 40.5,172.7 C39.8,171.8 38.8,171.3 37.3,171.3 C36.1,171.3 35.1,171.6 34.2,172.2 C33.3,172.8 32.3,173.6 31.2,174.8 L31.2,190.8 L27.5,190.8 L27.5,190.7 Z" id="Shape" fill="#34C665"></path><path d="M57.4,191.2 C55.5,191.2 54,190.7 52.8,189.6 C51.6,188.5 51,187 51,185 C51,182.6 52.1,180.7 54.2,179.4 C56.4,178.1 59.8,177.2 64.5,176.7 C64.5,176 64.4,175.3 64.3,174.7 C64.2,174 63.9,173.4 63.6,172.9 C63.3,172.4 62.8,172 62.2,171.6 C61.6,171.3 60.9,171.1 59.9,171.1 C58.6,171.1 57.4,171.3 56.3,171.8 C55.2,172.3 54.2,172.8 53.3,173.4 L51.8,170.8 C52.8,170.1 54.1,169.5 55.6,168.9 C57.1,168.3 58.7,168 60.5,168 C63.2,168 65.2,168.8 66.4,170.5 C67.6,172.2 68.2,174.4 68.2,177.1 L68.2,190.7 L65.1,190.7 L64.8,188.1 L64.7,188.1 C63.6,189 62.5,189.7 61.3,190.4 C60.1,190.9 58.8,191.2 57.4,191.2 Z M58.5,188.2 C59.6,188.2 60.6,188 61.5,187.4 C62.4,186.9 63.4,186.2 64.5,185.2 L64.5,179.1 C62.6,179.3 61.1,179.6 59.8,180 C58.5,180.3 57.5,180.7 56.7,181.2 C55.9,181.7 55.4,182.2 55,182.8 C54.7,183.4 54.5,184 54.5,184.7 C54.5,186 54.9,186.9 55.6,187.4 C56.4,187.9 57.4,188.2 58.5,188.2 Z" id="Shape" fill="#34C665"></path><path d="M75.2,190.7 L75.2,168.6 L78.3,168.6 L78.6,171.8 L78.7,171.8 C79.8,170.7 80.9,169.8 82,169.1 C83.2,168.4 84.5,168 86.1,168 C88.4,168 90.1,168.7 91.2,170.2 C92.3,171.7 92.8,173.8 92.8,176.7 L92.8,190.7 L89.1,190.7 L89.1,177.2 C89.1,175.1 88.8,173.6 88.1,172.7 C87.4,171.8 86.4,171.3 84.9,171.3 C83.7,171.3 82.7,171.6 81.8,172.2 C80.9,172.8 79.9,173.6 78.8,174.8 L78.8,190.8 L75.2,190.8 L75.2,190.7 Z" id="Shape" fill="#34C665"></path><path d="M107.6,200.9 C106.2,200.9 105,200.8 103.9,200.5 C102.8,200.2 101.8,199.9 101,199.3 C100.2,198.8 99.6,198.2 99.1,197.4 C98.7,196.7 98.4,195.8 98.4,194.8 C98.4,193.9 98.7,193 99.3,192.1 C99.9,191.3 100.7,190.5 101.7,189.8 L101.7,189.6 C101.2,189.3 100.7,188.8 100.3,188.2 C99.9,187.6 99.7,186.9 99.7,186 C99.7,185.1 100,184.2 100.5,183.5 C101,182.8 101.6,182.3 102.1,181.9 L102.1,181.7 C101.4,181.1 100.7,180.3 100.1,179.3 C99.5,178.3 99.2,177.1 99.2,175.8 C99.2,174.6 99.4,173.5 99.9,172.5 C100.3,171.5 100.9,170.7 101.7,170 C102.5,169.3 103.3,168.8 104.4,168.4 C105.4,168 106.5,167.9 107.6,167.9 C108.2,167.9 108.8,168 109.3,168.1 C109.8,168.2 110.3,168.3 110.7,168.5 L118.4,168.5 L118.4,171.4 L113.8,171.4 C114.3,171.9 114.7,172.6 115.1,173.4 C115.4,174.2 115.6,175.1 115.6,176 C115.6,177.2 115.4,178.3 115,179.2 C114.6,180.2 114,181 113.3,181.6 C112.6,182.3 111.7,182.8 110.7,183.1 C109.7,183.5 108.7,183.6 107.5,183.6 C107,183.6 106.4,183.5 105.8,183.4 C105.2,183.3 104.7,183.1 104.2,182.8 C103.8,183.1 103.5,183.5 103.2,183.9 C102.9,184.3 102.8,184.8 102.8,185.4 C102.8,186.1 103.1,186.7 103.6,187.1 C104.1,187.6 105.2,187.8 106.7,187.8 L111,187.8 C113.6,187.8 115.5,188.2 116.8,189.1 C118.1,189.9 118.7,191.3 118.7,193.1 C118.7,194.1 118.4,195.1 117.9,196 C117.4,196.9 116.6,197.7 115.7,198.4 C114.7,199.1 113.6,199.7 112.2,200.1 C110.9,200.7 109.3,200.9 107.6,200.9 Z M108.1,198.3 C109.2,198.3 110.1,198.2 111,197.9 C111.9,197.6 112.6,197.3 113.2,196.9 C113.8,196.5 114.3,196 114.6,195.5 C114.9,195 115.1,194.4 115.1,193.8 C115.1,192.8 114.7,192.1 114,191.7 C113.2,191.3 112.1,191.1 110.7,191.1 L106.9,191.1 C106.5,191.1 106,191.1 105.5,191 C105,191 104.5,190.9 104,190.7 C103.2,191.3 102.6,191.9 102.3,192.5 C101.9,193.1 101.8,193.8 101.8,194.4 C101.8,195.6 102.4,196.5 103.5,197.2 C104.6,197.9 106.1,198.3 108.1,198.3 Z M107.6,181.2 C108.2,181.2 108.8,181.1 109.4,180.8 C110,180.6 110.5,180.2 110.9,179.8 C111.3,179.3 111.7,178.8 111.9,178.1 C112.1,177.4 112.3,176.7 112.3,175.9 C112.3,174.3 111.8,173 110.9,172.1 C110,171.2 108.9,170.8 107.6,170.8 C106.3,170.8 105.2,171.2 104.3,172.1 C103.4,173 102.9,174.3 102.9,175.9 C102.9,176.7 103,177.5 103.3,178.1 C103.5,178.8 103.9,179.3 104.3,179.8 C104.7,180.3 105.2,180.6 105.8,180.8 C106.4,181 107,181.2 107.6,181.2 Z" id="Shape" fill="#34C665"></path><path d="M131.4,191.2 C129.9,191.2 128.5,190.9 127.2,190.4 C125.9,189.9 124.8,189.1 123.8,188.1 C122.8,187.1 122.1,185.9 121.5,184.5 C121,183.1 120.7,181.4 120.7,179.6 C120.7,177.8 121,176.1 121.5,174.7 C122.1,173.3 122.8,172 123.7,171 C124.6,170 125.7,169.2 126.9,168.7 C128.1,168.2 129.3,167.9 130.6,167.9 C132,167.9 133.2,168.1 134.4,168.6 C135.5,169.1 136.4,169.8 137.2,170.7 C137.9,171.6 138.5,172.7 138.9,174 C139.3,175.3 139.5,176.7 139.5,178.3 C139.5,178.7 139.5,179.1 139.5,179.5 C139.5,179.9 139.4,180.2 139.4,180.5 L124.5,180.5 C124.7,182.9 125.4,184.7 126.7,186.1 C128,187.5 129.7,188.2 131.9,188.2 C133,188.2 133.9,188 134.8,187.7 C135.7,187.4 136.6,187 137.4,186.4 L138.7,188.9 C137.7,189.5 136.7,190 135.5,190.5 C134.3,191 132.9,191.2 131.4,191.2 Z M124.4,177.8 L136.2,177.8 C136.2,175.6 135.7,173.8 134.8,172.7 C133.8,171.5 132.5,170.9 130.8,170.9 C130,170.9 129.3,171.1 128.5,171.4 C127.7,171.7 127.1,172.2 126.6,172.7 C126,173.3 125.5,174 125.2,174.9 C124.8,175.8 124.6,176.7 124.4,177.8 Z" id="Shape" fill="#34C665"></path><polygon id="Shape" fill="#34C665" points="142.7 190.7 142.7 188.7 154.4 171.6 144 171.6 144 168.5 159.1 168.5 159.1 170.5 147.4 187.6 159.4 187.6 159.4 190.7"></polygon><path d="M179.3,191.2 C177.7,191.2 176.2,190.9 174.8,190.3 C173.4,189.7 172.1,189 171.1,188.1 L173,185.6 C174,186.4 175,187 176,187.5 C177,188 178.2,188.2 179.5,188.2 C181,188.2 182.1,187.9 182.8,187.2 C183.5,186.5 183.9,185.7 183.9,184.7 C183.9,184.1 183.7,183.6 183.4,183.2 C183.1,182.8 182.7,182.4 182.2,182.1 C181.7,181.8 181.2,181.5 180.6,181.3 C180,181.1 179.4,180.8 178.8,180.6 C178,180.3 177.2,180 176.4,179.7 C175.6,179.4 174.9,178.9 174.3,178.4 C173.7,177.9 173.2,177.3 172.8,176.6 C172.4,175.9 172.2,175.1 172.2,174.2 C172.2,173.3 172.4,172.5 172.7,171.7 C173,170.9 173.5,170.3 174.2,169.7 C174.9,169.1 175.6,168.7 176.6,168.4 C177.5,168.1 178.6,167.9 179.8,167.9 C181.2,167.9 182.5,168.1 183.6,168.6 C184.8,169.1 185.8,169.7 186.6,170.4 L184.8,172.8 C184,172.2 183.3,171.8 182.4,171.4 C181.6,171 180.7,170.9 179.7,170.9 C178.3,170.9 177.3,171.2 176.6,171.9 C175.9,172.5 175.6,173.3 175.6,174.1 C175.6,174.6 175.7,175.1 176,175.4 C176.3,175.8 176.6,176.1 177.1,176.4 C177.6,176.7 178.1,176.9 178.7,177.2 C179.3,177.4 179.9,177.7 180.5,177.9 C181.3,178.2 182.1,178.5 182.9,178.9 C183.7,179.2 184.4,179.7 185.1,180.2 C185.7,180.7 186.3,181.3 186.7,182 C187.1,182.7 187.3,183.6 187.3,184.6 C187.3,185.5 187.1,186.4 186.8,187.2 C186.5,188 185.9,188.7 185.3,189.3 C184.6,189.9 183.8,190.4 182.8,190.7 C181.7,191 180.6,191.2 179.3,191.2 Z" id="Shape" fill="#34C665"></path><path d="M197.7,191.2 C195.8,191.2 194.3,190.7 193.1,189.6 C191.9,188.5 191.3,187 191.3,185 C191.3,182.6 192.4,180.7 194.5,179.4 C196.7,178.1 200.1,177.2 204.8,176.7 C204.8,176 204.7,175.3 204.6,174.7 C204.5,174 204.2,173.4 203.9,172.9 C203.6,172.4 203.1,172 202.5,171.6 C201.9,171.3 201.2,171.1 200.2,171.1 C198.9,171.1 197.7,171.3 196.6,171.8 C195.5,172.3 194.5,172.8 193.6,173.4 L192.1,170.8 C193.1,170.1 194.4,169.5 195.9,168.9 C197.4,168.3 199,168 200.8,168 C203.5,168 205.5,168.8 206.7,170.5 C207.9,172.2 208.5,174.4 208.5,177.1 L208.5,190.7 L205.4,190.7 L205.1,188.1 L205,188.1 C203.9,189 202.8,189.7 201.6,190.4 C200.4,190.9 199.1,191.2 197.7,191.2 Z M198.8,188.2 C199.9,188.2 200.9,188 201.8,187.4 C202.7,186.9 203.7,186.2 204.8,185.2 L204.8,179.1 C202.9,179.3 201.4,179.6 200.1,180 C198.8,180.3 197.8,180.7 197,181.2 C196.2,181.7 195.7,182.2 195.3,182.8 C195,183.4 194.8,184 194.8,184.7 C194.8,186 195.2,186.9 195.9,187.4 C196.7,187.9 197.7,188.2 198.8,188.2 Z" id="Shape" fill="#34C665"></path><path d="M215.5,190.7 L215.5,168.6 L218.6,168.6 L218.9,171.8 L219,171.8 C220.1,170.7 221.2,169.8 222.3,169.1 C223.5,168.4 224.8,168 226.4,168 C228.7,168 230.4,168.7 231.5,170.2 C232.6,171.7 233.1,173.8 233.1,176.7 L233.1,190.7 L229.4,190.7 L229.4,177.2 C229.4,175.1 229.1,173.6 228.4,172.7 C227.7,171.8 226.7,171.3 225.2,171.3 C224,171.3 223,171.6 222.1,172.2 C221.2,172.8 220.2,173.6 219.1,174.8 L219.1,190.8 L215.5,190.8 L215.5,190.7 Z" id="Shape" fill="#34C665"></path><path d="M246.2,191.2 C244.6,191.2 243.1,190.9 241.7,190.3 C240.3,189.7 239,189 238,188.1 L239.9,185.6 C240.9,186.4 241.9,187 242.9,187.5 C243.9,188 245.1,188.2 246.4,188.2 C247.9,188.2 249,187.9 249.7,187.2 C250.4,186.5 250.8,185.7 250.8,184.7 C250.8,184.1 250.6,183.6 250.3,183.2 C250,182.8 249.6,182.4 249.1,182.1 C248.6,181.8 248.1,181.5 247.5,181.3 C246.9,181.1 246.3,180.8 245.7,180.6 C244.9,180.3 244.1,180 243.3,179.7 C242.5,179.4 241.8,178.9 241.2,178.4 C240.6,177.9 240.1,177.3 239.7,176.6 C239.3,175.9 239.1,175.1 239.1,174.2 C239.1,173.3 239.3,172.5 239.6,171.7 C239.9,170.9 240.4,170.3 241.1,169.7 C241.8,169.1 242.5,168.7 243.5,168.4 C244.4,168.1 245.5,167.9 246.7,167.9 C248.1,167.9 249.4,168.1 250.5,168.6 C251.7,169.1 252.7,169.7 253.5,170.4 L251.7,172.8 C250.9,172.2 250.2,171.8 249.3,171.4 C248.4,171 247.6,170.9 246.6,170.9 C245.2,170.9 244.2,171.2 243.5,171.9 C242.8,172.5 242.5,173.3 242.5,174.1 C242.5,174.6 242.6,175.1 242.9,175.4 C243.2,175.8 243.5,176.1 244,176.4 C244.5,176.7 245,176.9 245.6,177.2 C246.2,177.4 246.8,177.7 247.4,177.9 C248.2,178.2 249,178.5 249.8,178.9 C250.6,179.2 251.3,179.7 252,180.2 C252.6,180.7 253.2,181.3 253.6,182 C254,182.7 254.2,183.6 254.2,184.6 C254.2,185.5 254,186.4 253.7,187.2 C253.4,188 252.8,188.7 252.2,189.3 C251.5,189.9 250.7,190.4 249.7,190.7 C248.7,191 247.5,191.2 246.2,191.2 Z" id="Shape" fill="#34C665"></path><path d="M277.3,191.2 C275.8,191.2 274.5,190.9 273.2,190.4 C271.9,189.9 270.8,189.1 269.9,188.1 C269,187.1 268.2,185.9 267.7,184.5 C267.2,183.1 266.9,181.4 266.9,179.6 C266.9,177.7 267.2,176.1 267.8,174.7 C268.4,173.3 269.2,172 270.1,171 C271.1,170 272.2,169.2 273.5,168.7 C274.8,168.2 276.1,167.9 277.6,167.9 C279.1,167.9 280.3,168.2 281.3,168.7 C282.3,169.2 283.2,169.8 284,170.5 L282.1,173 C281.5,172.4 280.8,172 280.1,171.6 C279.4,171.2 278.6,171.1 277.7,171.1 C276.7,171.1 275.8,171.3 274.9,171.7 C274,172.1 273.3,172.7 272.7,173.5 C272.1,174.3 271.6,175.2 271.3,176.2 C271,177.2 270.8,178.4 270.8,179.7 C270.8,181 271,182.1 271.3,183.2 C271.6,184.2 272.1,185.1 272.7,185.9 C273.3,186.6 274,187.2 274.9,187.6 C275.7,188 276.7,188.2 277.7,188.2 C278.7,188.2 279.7,188 280.5,187.5 C281.4,187.1 282.1,186.5 282.8,185.9 L284.4,188.4 C283.4,189.3 282.3,190 281.1,190.5 C280,191 278.7,191.2 277.3,191.2 Z" id="Shape" fill="#34C665"></path><path d="M289.4,190.7 L289.4,158.3 L293.1,158.3 L293.1,167.1 L293,171.7 C294.1,170.7 295.2,169.8 296.3,169.1 C297.5,168.4 298.8,168 300.4,168 C302.7,168 304.4,168.7 305.5,170.2 C306.6,171.7 307.1,173.8 307.1,176.7 L307.1,190.7 L303.4,190.7 L303.4,177.2 C303.4,175.1 303.1,173.6 302.4,172.7 C301.7,171.8 300.7,171.3 299.2,171.3 C298,171.3 297,171.6 296.1,172.2 C295.2,172.8 294.2,173.6 293.1,174.8 L293.1,190.8 L289.4,190.8 L289.4,190.7 Z" id="Shape" fill="#34C665"></path><path d="M319.2,191.2 C317.3,191.2 315.8,190.7 314.6,189.6 C313.4,188.5 312.8,187 312.8,185 C312.8,182.6 313.9,180.7 316,179.4 C318.2,178.1 321.6,177.2 326.3,176.7 C326.3,176 326.2,175.3 326.1,174.7 C326,174 325.7,173.4 325.4,172.9 C325.1,172.4 324.6,172 324,171.6 C323.4,171.3 322.7,171.1 321.7,171.1 C320.4,171.1 319.2,171.3 318.1,171.8 C317,172.3 316,172.8 315.1,173.4 L313.6,170.8 C314.6,170.1 315.9,169.5 317.4,168.9 C318.9,168.3 320.5,168 322.3,168 C325,168 327,168.8 328.2,170.5 C329.4,172.2 330,174.4 330,177.1 L330,190.7 L327,190.7 L326.7,188.1 L326.6,188.1 C325.5,189 324.4,189.7 323.2,190.4 C321.9,190.9 320.6,191.2 319.2,191.2 Z M320.3,188.2 C321.4,188.2 322.4,188 323.3,187.4 C324.2,186.9 325.2,186.2 326.3,185.2 L326.3,179.1 C324.4,179.3 322.9,179.6 321.6,180 C320.3,180.3 319.3,180.7 318.5,181.2 C317.7,181.7 317.2,182.2 316.8,182.8 C316.5,183.4 316.3,184 316.3,184.7 C316.3,186 316.7,186.9 317.4,187.4 C318.3,187.9 319.2,188.2 320.3,188.2 Z" id="Shape" fill="#34C665"></path><path d="M337.1,190.7 L337.1,168.6 L340.2,168.6 L340.5,171.8 L340.6,171.8 C341.7,170.7 342.8,169.8 343.9,169.1 C345.1,168.4 346.4,168 348,168 C350.3,168 352,168.7 353.1,170.2 C354.2,171.7 354.7,173.8 354.7,176.7 L354.7,190.7 L351,190.7 L351,177.2 C351,175.1 350.7,173.6 350,172.7 C349.3,171.8 348.3,171.3 346.8,171.3 C345.6,171.3 344.6,171.6 343.7,172.2 C342.8,172.8 341.8,173.6 340.7,174.8 L340.7,190.8 L337.1,190.8 L337.1,190.7 Z" id="Shape" fill="#34C665"></path><path d="M369.5,200.9 C368.1,200.9 366.9,200.8 365.8,200.5 C364.7,200.2 363.7,199.9 362.9,199.3 C362.1,198.8 361.5,198.2 361,197.4 C360.6,196.7 360.3,195.8 360.3,194.8 C360.3,193.9 360.6,193 361.2,192.1 C361.8,191.3 362.6,190.5 363.6,189.8 L363.6,189.6 C363.1,189.3 362.6,188.8 362.2,188.2 C361.8,187.6 361.6,186.9 361.6,186 C361.6,185.1 361.9,184.2 362.4,183.5 C362.9,182.8 363.5,182.3 364,181.9 L364,181.7 C363.3,181.1 362.6,180.3 362,179.3 C361.4,178.3 361.1,177.1 361.1,175.8 C361.1,174.6 361.3,173.5 361.8,172.5 C362.2,171.5 362.8,170.7 363.6,170 C364.4,169.3 365.2,168.8 366.3,168.4 C367.3,168 368.4,167.9 369.5,167.9 C370.1,167.9 370.7,168 371.2,168.1 C371.7,168.2 372.2,168.3 372.6,168.5 L380.3,168.5 L380.3,171.4 L375.7,171.4 C376.2,171.9 376.6,172.6 377,173.4 C377.3,174.2 377.5,175.1 377.5,176 C377.5,177.2 377.3,178.3 376.9,179.2 C376.5,180.2 375.9,181 375.2,181.6 C374.5,182.2 373.6,182.8 372.6,183.1 C371.6,183.5 370.6,183.6 369.4,183.6 C368.9,183.6 368.3,183.5 367.7,183.4 C367.1,183.3 366.6,183.1 366.1,182.8 C365.7,183.1 365.4,183.5 365.1,183.9 C364.8,184.3 364.7,184.8 364.7,185.4 C364.7,186.1 365,186.7 365.5,187.1 C366,187.6 367.1,187.8 368.6,187.8 L372.9,187.8 C375.5,187.8 377.4,188.2 378.7,189.1 C380,189.9 380.6,191.3 380.6,193.1 C380.6,194.1 380.3,195.1 379.8,196 C379.3,196.9 378.5,197.7 377.6,198.4 C376.6,199.1 375.5,199.7 374.1,200.1 C372.7,200.7 371.2,200.9 369.5,200.9 Z M370,198.3 C371.1,198.3 372,198.2 372.9,197.9 C373.8,197.6 374.5,197.3 375.1,196.9 C375.7,196.5 376.2,196 376.5,195.5 C376.8,195 377,194.4 377,193.8 C377,192.8 376.6,192.1 375.9,191.7 C375.1,191.3 374,191.1 372.6,191.1 L368.8,191.1 C368.4,191.1 367.9,191.1 367.4,191 C366.9,191 366.4,190.9 365.9,190.7 C365.1,191.3 364.5,191.9 364.2,192.5 C363.8,193.1 363.7,193.8 363.7,194.4 C363.7,195.6 364.3,196.5 365.4,197.2 C366.4,197.9 368,198.3 370,198.3 Z M369.5,181.2 C370.1,181.2 370.7,181.1 371.3,180.8 C371.9,180.6 372.4,180.2 372.8,179.8 C373.2,179.3 373.6,178.8 373.8,178.1 C374,177.4 374.2,176.7 374.2,175.9 C374.2,174.3 373.7,173 372.8,172.1 C371.9,171.2 370.8,170.8 369.5,170.8 C368.2,170.8 367.1,171.2 366.2,172.1 C365.3,173 364.8,174.3 364.8,175.9 C364.8,176.7 364.9,177.5 365.2,178.1 C365.4,178.8 365.8,179.3 366.2,179.8 C366.6,180.3 367.1,180.6 367.7,180.8 C368.2,181 368.8,181.2 369.5,181.2 Z" id="Shape" fill="#34C665"></path><path d="M393.3,191.2 C391.8,191.2 390.4,190.9 389.1,190.4 C387.8,189.9 386.7,189.1 385.7,188.1 C384.7,187.1 384,185.9 383.4,184.5 C382.9,183.1 382.6,181.4 382.6,179.6 C382.6,177.8 382.9,176.1 383.4,174.7 C384,173.3 384.7,172 385.6,171 C386.5,170 387.6,169.2 388.8,168.7 C390,168.2 391.2,167.9 392.5,167.9 C393.9,167.9 395.1,168.1 396.3,168.6 C397.4,169.1 398.3,169.8 399.1,170.7 C399.8,171.6 400.4,172.7 400.8,174 C401.2,175.3 401.4,176.7 401.4,178.3 C401.4,178.7 401.4,179.1 401.4,179.5 C401.4,179.9 401.3,180.2 401.3,180.5 L386.4,180.5 C386.6,182.9 387.3,184.7 388.6,186.1 C389.9,187.5 391.6,188.2 393.8,188.2 C394.9,188.2 395.8,188 396.7,187.7 C397.6,187.4 398.5,187 399.3,186.4 L400.6,188.9 C399.6,189.5 398.6,190 397.4,190.5 C396.1,191 394.8,191.2 393.3,191.2 Z M386.3,177.8 L398.1,177.8 C398.1,175.6 397.6,173.8 396.7,172.7 C395.7,171.5 394.4,170.9 392.7,170.9 C391.9,170.9 391.2,171.1 390.4,171.4 C389.7,171.7 389,172.2 388.5,172.7 C387.9,173.3 387.4,174 387.1,174.9 C386.7,175.8 386.4,176.7 386.3,177.8 Z" id="Shape" fill="#34C665"></path><path d="M406.9,190.7 L406.9,168.6 L410,168.6 L410.3,172.6 L410.4,172.6 C411.2,171.2 412.1,170.1 413.2,169.3 C414.3,168.5 415.5,168.1 416.7,168.1 C417.6,168.1 418.4,168.3 419.1,168.6 L418.4,171.9 C418,171.8 417.7,171.7 417.4,171.6 C417.1,171.5 416.7,171.5 416.3,171.5 C415.4,171.5 414.4,171.9 413.4,172.6 C412.4,173.4 411.5,174.7 410.7,176.6 L410.7,190.8 L406.9,190.8 L406.9,190.7 Z" id="Shape" fill="#34C665"></path><path d="M439.4,191.2 C436.6,191.2 434.4,190.2 432.7,188.2 C431,186.2 430.2,183.3 430.2,179.6 C430.2,177.8 430.5,176.2 431,174.8 C431.5,173.4 432.2,172.1 433.1,171.1 C434,170.1 435,169.3 436.2,168.8 C437.4,168.3 438.6,168 439.8,168 C441.1,168 442.2,168.2 443.1,168.7 C444,169.2 445,169.8 446,170.6 L445.8,166.8 L445.8,158.3 L449.6,158.3 L449.6,190.7 L446.5,190.7 L446.2,188.1 L446.1,188.1 C445.2,189 444.2,189.7 443.1,190.3 C442,190.9 440.7,191.2 439.4,191.2 Z M440.2,188.1 C441.2,188.1 442.2,187.8 443.1,187.3 C444,186.8 444.9,186 445.8,185 L445.8,173.4 C444.9,172.6 444,172 443.1,171.6 C442.2,171.3 441.3,171.1 440.4,171.1 C439.5,171.1 438.7,171.3 437.9,171.7 C437.1,172.1 436.5,172.7 435.9,173.4 C435.3,174.1 434.9,175 434.5,176.1 C434.2,177.1 434,178.3 434,179.6 C434,182.3 434.5,184.4 435.6,185.8 C436.7,187.3 438.2,188.1 440.2,188.1 Z" id="Shape" fill="#34C665"></path><path d="M466,191.2 C464.5,191.2 463.1,190.9 461.8,190.4 C460.5,189.9 459.4,189.1 458.4,188.1 C457.4,187.1 456.7,185.9 456.1,184.5 C455.6,183.1 455.3,181.4 455.3,179.6 C455.3,177.8 455.6,176.1 456.1,174.7 C456.7,173.3 457.4,172 458.3,171 C459.2,170 460.3,169.2 461.5,168.7 C462.7,168.2 463.9,167.9 465.2,167.9 C466.6,167.9 467.8,168.1 469,168.6 C470.1,169.1 471,169.8 471.8,170.7 C472.5,171.6 473.1,172.7 473.5,174 C473.9,175.3 474.1,176.7 474.1,178.3 C474.1,178.7 474.1,179.1 474.1,179.5 C474.1,179.9 474,180.2 474,180.5 L459.1,180.5 C459.3,182.9 460,184.7 461.3,186.1 C462.6,187.5 464.3,188.2 466.5,188.2 C467.6,188.2 468.5,188 469.4,187.7 C470.3,187.4 471.2,187 472,186.4 L473.3,188.9 C472.3,189.5 471.3,190 470.1,190.5 C468.9,191 467.6,191.2 466,191.2 Z M459.1,177.8 L470.9,177.8 C470.9,175.6 470.4,173.8 469.5,172.7 C468.5,171.5 467.2,170.9 465.5,170.9 C464.7,170.9 464,171.1 463.2,171.4 C462.5,171.7 461.8,172.2 461.3,172.7 C460.7,173.3 460.2,174 459.9,174.9 C459.4,175.8 459.2,176.7 459.1,177.8 Z" id="Shape" fill="#34C665"></path><path d="M488.8,190.7 L488.8,168.6 L491.9,168.6 L492.2,171.8 L492.3,171.8 C493.4,170.7 494.5,169.8 495.6,169.1 C496.8,168.4 498.1,168 499.7,168 C502,168 503.7,168.7 504.8,170.2 C505.9,171.7 506.4,173.8 506.4,176.7 L506.4,190.7 L502.7,190.7 L502.7,177.2 C502.7,175.1 502.4,173.6 501.7,172.7 C501,171.8 500,171.3 498.5,171.3 C497.3,171.3 496.3,171.6 495.4,172.2 C494.5,172.8 493.5,173.6 492.4,174.8 L492.4,190.8 L488.8,190.8 L488.8,190.7 Z" id="Shape" fill="#34C665"></path><path d="M518.8,191.2 C516.9,191.2 515.4,190.7 514.2,189.6 C513,188.5 512.4,187 512.4,185 C512.4,182.6 513.5,180.7 515.6,179.4 C517.8,178.1 521.2,177.2 525.9,176.7 C525.9,176 525.8,175.3 525.7,174.7 C525.6,174 525.3,173.4 525,172.9 C524.7,172.4 524.2,172 523.6,171.6 C523,171.3 522.3,171.1 521.3,171.1 C520,171.1 518.8,171.3 517.7,171.8 C516.6,172.3 515.6,172.8 514.7,173.4 L513.2,170.8 C514.2,170.1 515.5,169.5 517,168.9 C518.5,168.3 520.1,168 521.9,168 C524.6,168 526.6,168.8 527.8,170.5 C529,172.2 529.6,174.4 529.6,177.1 L529.6,190.7 L526.5,190.7 L526.2,188.1 L526.1,188.1 C525,189 523.9,189.7 522.7,190.4 C521.5,190.9 520.2,191.2 518.8,191.2 Z M519.9,188.2 C521,188.2 522,188 522.9,187.4 C523.8,186.9 524.8,186.2 525.9,185.2 L525.9,179.1 C524,179.3 522.5,179.6 521.2,180 C519.9,180.3 518.9,180.7 518.1,181.2 C517.3,181.7 516.8,182.2 516.4,182.8 C516.1,183.4 515.9,184 515.9,184.7 C515.9,186 516.3,186.9 517,187.4 C517.8,187.9 518.8,188.2 519.9,188.2 Z" id="Shape" fill="#34C665"></path><path d="M543,191.2 C541.8,191.2 540.8,191 540,190.7 C539.2,190.3 538.5,189.8 538,189.2 C537.5,188.6 537.1,187.8 536.9,186.9 C536.7,186 536.6,185 536.6,183.9 L536.6,171.7 L533.3,171.7 L533.3,168.9 L536.8,168.7 L537.3,162.5 L540.4,162.5 L540.4,168.7 L546.4,168.7 L546.4,171.8 L540.4,171.8 L540.4,184.1 C540.4,185.5 540.6,186.5 541.2,187.3 C541.7,188 542.6,188.4 543.9,188.4 C544.3,188.4 544.7,188.3 545.2,188.2 C545.7,188.1 546.1,187.9 546.4,187.8 L547.1,190.6 C546.5,190.8 545.8,191 545.1,191.2 C544.4,191.1 543.6,191.2 543,191.2 Z" id="Shape" fill="#34C665"></path><path d="M557.8,191.2 C555.4,191.2 553.7,190.5 552.6,189 C551.5,187.5 551,185.4 551,182.5 L551,168.5 L554.8,168.5 L554.8,182 C554.8,184.1 555.1,185.6 555.8,186.5 C556.5,187.4 557.5,187.9 559,187.9 C560.2,187.9 561.2,187.6 562.1,187 C563,186.4 564,185.5 565,184.2 L565,168.5 L568.7,168.5 L568.7,190.6 L565.6,190.6 L565.3,187.1 L565.2,187.1 C564.2,188.3 563.1,189.3 561.9,190 C560.7,190.9 559.4,191.2 557.8,191.2 Z" id="Shape" fill="#34C665"></path><path d="M576.1,190.7 L576.1,168.6 L579.2,168.6 L579.5,172.6 L579.6,172.6 C580.4,171.2 581.3,170.1 582.4,169.3 C583.5,168.5 584.7,168.1 585.9,168.1 C586.8,168.1 587.6,168.3 588.3,168.6 L587.6,171.9 C587.2,171.8 586.9,171.7 586.6,171.6 C586.3,171.5 585.9,171.5 585.5,171.5 C584.6,171.5 583.6,171.9 582.6,172.6 C581.6,173.4 580.7,174.7 579.9,176.6 L579.9,190.8 L576.1,190.8 L576.1,190.7 Z" id="Shape" fill="#34C665"></path><path d="M600.5,191.2 C599,191.2 597.6,190.9 596.3,190.4 C595,189.9 593.9,189.1 592.9,188.1 C591.9,187.1 591.2,185.9 590.6,184.5 C590.1,183.1 589.8,181.4 589.8,179.6 C589.8,177.8 590.1,176.1 590.6,174.7 C591.2,173.3 591.9,172 592.8,171 C593.7,170 594.8,169.2 596,168.7 C597.2,168.2 598.4,167.9 599.7,167.9 C601.1,167.9 602.3,168.1 603.5,168.6 C604.6,169.1 605.5,169.8 606.3,170.7 C607,171.6 607.6,172.7 608,174 C608.4,175.3 608.6,176.7 608.6,178.3 C608.6,178.7 608.6,179.1 608.6,179.5 C608.6,179.9 608.5,180.2 608.5,180.5 L593.6,180.5 C593.8,182.9 594.5,184.7 595.8,186.1 C597.1,187.5 598.8,188.2 601,188.2 C602.1,188.2 603,188 603.9,187.7 C604.8,187.4 605.7,187 606.5,186.4 L607.8,188.9 C606.8,189.5 605.8,190 604.6,190.5 C603.3,191 602,191.2 600.5,191.2 Z M593.5,177.8 L605.3,177.8 C605.3,175.6 604.8,173.8 603.9,172.7 C602.9,171.5 601.6,170.9 599.9,170.9 C599.1,170.9 598.4,171.1 597.6,171.4 C596.9,171.7 596.2,172.2 595.7,172.7 C595.1,173.3 594.6,174 594.3,174.9 C593.9,175.8 593.6,176.7 593.5,177.8 Z" id="Shape" fill="#34C665"></path><path d="M116.6,54.3 L19.3,100.2 C11.1,104.1 1.7,98.1 1.7,89 L99,43.1 C107.2,39.3 116.6,45.3 116.6,54.3 Z" id="Shape" fill="#74DAD5"></path><path d="M99.1,94.3 L1.8,140.2 C1.8,128.3 8.7,117.5 19.4,112.5 L116.7,66.6 C116.6,78.4 109.8,89.2 99.1,94.3 Z" id="Shape" fill="#63A6D4"></path><path d="M99.1,11.5 L59.8,30 L19.5,11.3 C11.3,7.5 1.9,13.5 1.9,22.6 L39.2,39.7 L1.9,57.3 C1.9,66.3 11.3,72.3 19.5,68.5 L116.8,22.6 C116.6,13.7 107.2,7.7 99.1,11.5 Z" id="Shape" fill="#34C665"></path><path d="M205.3,36.5 C206.3,34.1 208.5,33.2 210.9,33.2 C211.8,33.2 212.6,33.3 213.5,33.5 C216.2,34.1 218.3,35.9 218.3,38.2 C218.3,38.8 218.2,39.6 217.9,40.3 L183.8,114.2 C178.7,125.1 172.8,132.3 158.7,132.3 C155.1,132.3 151.6,131.8 148.3,130.7 C145.4,129.8 144.3,128 144.3,126.2 C144.3,125.2 144.6,124.3 145,123.3 C146,121.2 147.9,119.8 150.3,119.8 C151.2,119.8 152,119.9 153,120.3 C155,121.1 157.6,121.9 160.2,121.9 C166.4,121.9 169.4,117.1 172,111.3 L176,102.5 L146.8,40.6 C146.5,40 146.4,39.2 146.4,38.6 C146.4,36.3 148.6,34.4 151.2,33.7 C152.2,33.4 153.2,33.3 154.2,33.3 C156.5,33.3 158.7,34.2 159.7,36.5 L177.9,78.4 C179.6,82.4 180.9,87.1 182.2,91 C183.4,87.1 185.4,82.3 187,78.6 L205.3,36.5 Z" id="Shape" fill="#4F6B8E"></path><path d="M259.9,126.4 C259.9,130 257.4,132 253.5,132 C249.5,132 247,130 247,126.4 L247,39.6 C247,35.8 249.5,34 253.5,34 C257.1,34 259.9,35.7 259.9,39.3 L259.9,41.9 C259.9,43.9 259.8,47.4 259.3,49.8 C264.4,39.5 272.3,32.7 286.3,32.7 C308,32.7 320.3,48.5 320.3,74.2 C320.3,99.9 307.3,117 285.8,117 C272.4,117 264.1,110.4 259.2,100.2 C259.8,102.9 259.9,106 259.9,108.6 L259.9,126.4 Z M259.6,74.7 C259.6,92.6 269,105.6 284.2,105.6 C298.8,105.6 307,93.2 307,74.5 C307,55.7 299.1,44 284.5,44 C268.6,44.1 259.6,57 259.6,74.7 Z" id="Shape" fill="#4F6B8E"></path><path d="M374.5,78.2 C356.7,74.7 349.4,68.5 349.4,54.8 C349.4,41.7 360.7,32.7 379.3,32.7 C395.3,32.7 405.6,39.5 409.2,50 C409.3,50.6 409.5,51.2 409.5,51.7 C409.5,54.4 407,56.3 404.4,57 C403.7,57.1 402.8,57.3 402.1,57.3 C399.5,57.3 396.9,56.1 396.2,53.4 C394.3,46.9 388,43.6 379.7,43.6 C368,43.6 362.5,48.4 362.5,54.4 C362.5,61 365.2,63.9 377.4,66.5 L386.4,68.4 C405.2,72.3 412.7,77.8 412.7,93 C412.7,106.9 400.9,117.1 380.6,117.1 C362.1,117.1 351.3,109.7 347.5,96.9 C347.4,96.2 347.2,95.6 347.2,95 C347.2,92.1 349.7,90.1 352.4,89.5 C353.1,89.4 353.8,89.2 354.4,89.2 C357.1,89.2 359.7,90.4 360.6,93.1 C363.2,101.5 369.1,105.7 380.5,105.7 C392.1,105.7 399.6,100.6 399.6,93.3 C399.6,86.2 395.8,82.3 382.7,79.7 L374.5,78.2 Z" id="Shape" fill="#4F6B8E"></path><path d="M452.5,77.3 C452.8,95.1 461.6,106.2 477.2,106.2 C487.6,106.2 493.4,101 496.9,93.3 C498.2,90.7 500.1,89.7 502.1,89.7 C503.1,89.7 504.1,90 505.1,90.3 C507.6,91 509.6,92.8 509.6,95.4 C509.6,96.3 509.5,97.1 508.9,98 C504.3,107.5 495.9,117.1 477.1,117.1 C453.4,117.1 439.7,100.3 439.7,75.3 C439.7,50.3 452.7,32.8 476.3,32.8 C497.4,32.8 509.2,49.3 510.7,68.2 C510.7,68.6 510.7,68.9 510.7,69.4 C510.7,74.6 508,77.3 503.5,77.3 L452.5,77.3 Z M495.3,66.8 C496.9,66.8 497.5,66.2 497.5,64.9 C497.5,64.8 497.5,64.5 497.5,64.2 C495.8,53.9 489.6,43.4 476.3,43.4 C462.4,43.4 454.9,52.6 453,66.8 L495.3,66.8 Z M487.4,2.3 C488.4,1.3 489.6,0.9 491,0.9 C492.7,0.9 494.8,1.6 496.1,3.1 C497.5,4.5 498.4,6.3 498.4,8 C498.4,9.6 497.7,10.9 496.2,11.9 L475.8,25.5 C475.1,26.1 474.1,26.4 473.2,26.4 C472.2,26.4 471.2,26 470.3,25.1 C469.7,24.4 469.4,23.7 469.4,22.9 C469.4,21.9 469.8,20.9 470.6,20 L487.4,2.3 Z" id="Shape" fill="#4F6B8E"></path><path d="M549.9,77.3 C550.2,95.1 559,106.2 574.6,106.2 C585,106.2 590.8,101 594.3,93.3 C595.6,90.7 597.5,89.7 599.5,89.7 C600.5,89.7 601.5,90 602.5,90.3 C605,91 607,92.8 607,95.4 C607,96.3 606.9,97.1 606.3,98 C601.7,107.5 593.3,117.1 574.5,117.1 C550.8,117.1 537.1,100.3 537.1,75.3 C537.1,50.3 550.1,32.8 573.7,32.8 C594.8,32.8 606.6,49.3 608.1,68.2 C608.1,68.6 608.1,68.9 608.1,69.4 C608.1,74.6 605.4,77.3 600.9,77.3 L549.9,77.3 Z M592.7,66.8 C594.3,66.8 594.9,66.2 594.9,64.9 C594.9,64.8 594.9,64.5 594.9,64.2 C593.2,53.9 587,43.4 573.7,43.4 C559.8,43.4 552.3,52.6 550.4,66.8 L592.7,66.8 Z" id="Shape" fill="#4F6B8E"></path></g></g></svg>