<svg xmlns="http://www.w3.org/2000/svg" xmlns:xlink="http://www.w3.org/1999/xlink" width="500" zoomAndPan="magnify" viewBox="0 0 375 374.999991" height="500" preserveAspectRatio="xMidYMid meet" version="1.0"><defs><clipPath id="ccda09136a"><path d="M 22.738281 50.4375 L 201.910156 50.4375 L 201.910156 366.75 L 22.738281 366.75 Z M 22.738281 50.4375 " clip-rule="nonzero"/></clipPath><clipPath id="87252a8422"><path d="M 122.230469 64.644531 L 352.449219 64.644531 L 352.449219 353 L 122.230469 353 Z M 122.230469 64.644531 " clip-rule="nonzero"/></clipPath><clipPath id="9cbd18345b"><path d="M 172 8.25 L 211 8.25 L 211 44 L 172 44 Z M 172 8.25 " clip-rule="nonzero"/></clipPath></defs><g clip-path="url(#ccda09136a)"><path fill="#383536" d="M 22.738281 166.101562 C 22.738281 166.101562 97.207031 195.929688 136.089844 175.144531 C 191.089844 145.734375 160.214844 78.421875 189.15625 50.804688 C 189.15625 50.804688 183.835938 86.492188 197.589844 151.640625 C 227.742188 294.457031 90.265625 366.773438 90.265625 366.773438 C 90.265625 366.773438 134.054688 300.085938 107.984375 243.238281 C 87.847656 199.332031 50.667969 205.859375 22.738281 166.101562 " fill-opacity="1" fill-rule="nonzero"/></g><path fill="#383536" d="M 147.851562 140.875 C 147.851562 155.730469 135.800781 167.773438 120.9375 167.773438 C 106.074219 167.773438 94.023438 155.730469 94.023438 140.875 C 94.023438 126.019531 106.074219 113.976562 120.9375 113.976562 C 135.800781 113.976562 147.851562 126.019531 147.851562 140.875 " fill-opacity="1" fill-rule="nonzero"/><path fill="#383536" d="M 115.4375 132.488281 L 149.003906 97.746094 L 101.023438 100.816406 L 67.179688 134.949219 L 73.335938 134.636719 L 79.527344 148.238281 C 79.046875 148.792969 78.898438 149.59375 79.222656 150.304688 C 79.546875 151.015625 80.25 151.433594 80.984375 151.433594 L 81.097656 151.6875 L 83.269531 164.832031 L 86.328125 161.246094 L 91.039062 161.296875 L 82.554688 151.023438 L 82.441406 150.773438 C 82.921875 150.21875 83.066406 149.417969 82.746094 148.707031 C 82.417969 147.996094 81.71875 147.578125 80.984375 147.578125 L 75.054688 134.546875 L 115.4375 132.488281 " fill-opacity="1" fill-rule="nonzero"/><g clip-path="url(#87252a8422)"><path fill="#ef9b11" d="M 351.613281 173.605469 C 349.382812 166.746094 343.277344 162.3125 336.058594 162.3125 L 245.460938 162.3125 L 217.460938 76.195312 C 215.234375 69.332031 209.128906 64.902344 201.910156 64.902344 C 199.132812 64.902344 196.519531 65.566406 194.226562 66.765625 C 194.09375 75.316406 194.386719 87.40625 195.945312 102.769531 L 201.910156 84.410156 L 229.199219 168.34375 C 231.394531 175.097656 237.640625 179.636719 244.75 179.636719 L 333.046875 179.636719 L 261.613281 231.507812 C 255.863281 235.683594 253.476562 243.023438 255.671875 249.78125 L 282.957031 333.710938 L 211.523438 281.839844 C 208.648438 279.75 205.28125 278.707031 201.910156 278.707031 C 198.542969 278.707031 195.171875 279.75 192.300781 281.839844 L 177.9375 292.265625 C 172.589844 300.628906 166.546875 308.773438 159.828125 316.667969 C 147.160156 331.542969 133.945312 343.386719 122.640625 352.246094 C 124.730469 351.757812 126.761719 350.84375 128.613281 349.496094 L 201.910156 296.269531 L 275.210938 349.496094 C 278.128906 351.617188 281.476562 352.675781 284.820312 352.675781 C 288.164062 352.675781 291.511719 351.617188 294.429688 349.496094 C 300.269531 345.253906 302.601562 338.082031 300.371094 331.222656 L 272.375 245.101562 L 345.671875 191.878906 C 351.511719 187.636719 353.84375 180.464844 351.613281 173.605469 " fill-opacity="1" fill-rule="nonzero"/></g><path fill="#ffffff" d="M 132.164062 171.011719 C 132.164062 171.011719 150.550781 185.925781 143.617188 217.109375 L 156.28125 222.835938 L 161.707031 207.167969 C 161.707031 207.167969 157.9375 184.71875 137.890625 167.773438 L 132.164062 171.011719 " fill-opacity="1" fill-rule="nonzero"/><g clip-path="url(#9cbd18345b)"><path fill="#ef9b11" d="M 191.398438 8.253906 L 195.8125 21.820312 L 210.085938 21.820312 L 198.539062 30.207031 L 202.949219 43.777344 L 191.398438 35.390625 L 179.851562 43.777344 L 184.261719 30.207031 L 172.714844 21.820312 L 186.988281 21.820312 L 191.398438 8.253906 " fill-opacity="1" fill-rule="nonzero"/></g></svg>